<?xml version="1.0" encoding="utf-8"?>
<svg version="1.1" xmlns="http://www.w3.org/2000/svg" width="2048px" height="2048px" xmlns:bx="https://boxy-svg.com" viewBox="0 0 2048 2048"><defs/><path d="M0 0 C11.48530848 5.48848421 21.82739656 14.32183058 31 23 C32.22494384 24.04662923 33.45406562 25.08839025 34.6875 26.125 C46.01786066 36.05626754 56.05033732 46.89883852 65 59 C65.70511719 59.93328125 66.41023438 60.8665625 67.13671875 61.828125 C102.01001253 108.69125456 121.9079058 167.75095634 113.42602539 226.35791016 C112.04317142 234.79450805 109.71612108 242.90531506 107 251 C122.45772942 249.54244735 134.74699007 246.51890102 146.0390625 234.90234375 C159.37621375 218.71562494 161.55589536 199.12353947 163 179 C181.80126033 197.29737395 193.19295256 227.14458165 200 252 C200.22526367 252.81710449 200.45052734 253.63420898 200.68261719 254.47607422 C201.36842164 257.00063682 202.03336632 259.52955588 202.6875 262.0625 C202.97330933 263.15715576 202.97330933 263.15715576 203.26489258 264.27392578 C207.02257048 279.46537613 208.5217105 294.25042484 208.375 309.875 C208.36851944 311.18978333 208.36851944 311.18978333 208.36190796 312.53112793 C208.28848571 325.24316898 207.82744 337.56316008 205 350 C204.83371094 350.80131348 204.66742187 351.60262695 204.49609375 352.42822266 C196.69250397 389.84932587 174.62123106 423.91986415 142.83984375 445.546875 C130.89285432 453.32283792 118.24553089 459.75670814 105 465 C104.32646484 465.26796387 103.65292969 465.53592773 102.95898438 465.81201172 C90.54002641 470.66994688 76.48785308 475.55930491 63 475 C65.94253885 471.84827593 68.99600126 469.56719708 72.625 467.25 C97.17783211 451.04927725 114.33823559 429.89408111 124.375 402.25 C124.73307739 401.27788574 124.73307739 401.27788574 125.09838867 400.28613281 C128.69668511 389.84912109 129.35082169 379.20905495 129.31567383 368.24682617 C129.31251898 366.19981241 129.33605854 364.15425803 129.36132812 362.10742188 C129.42225608 349.71945073 127.64881495 337.83922405 122.875 326.3125 C119.69462025 318.34603659 119.69462025 318.34603659 119 315 C118.34 315 117.68 315 117 315 C116.938125 316.0725 116.87625 317.145 116.8125 318.25 C115.55441701 328.10498339 110.69295261 338.06691183 103.15625 344.59765625 C99.04846703 347.52363658 95.35095451 348.87849004 90.28125 348.53125 C77.32648417 345.51438673 68.16414829 330.58921006 61.44140625 320 C49.53268935 300.71156611 41.40577784 280.46596117 38 258 C37.8976001 257.32557861 37.7952002 256.65115723 37.68969727 255.95629883 C37.01055369 251.05912626 36.80713055 246.24594752 36.8125 241.3125 C36.81330566 240.53229492 36.81411133 239.75208984 36.81494141 238.94824219 C36.90876427 229.97436101 38.01163656 221.48795666 41 213 C26.36951004 222.52046436 14.25208705 235.24043404 5 250 C4.61118652 250.61955566 4.22237305 251.23911133 3.82177734 251.87744141 C-5.40352452 266.85002651 -11.33368587 282.57137609 -14.57348633 299.83837891 C-14.8620675 301.30094199 -15.18599744 302.75689811 -15.54174805 304.20458984 C-17.36582354 311.97042385 -17.2647574 319.69875815 -17.1875 327.625 C-17.18065005 329.055988 -17.17414102 330.48697767 -17.16796875 331.91796875 C-17.1096249 341.30207454 -16.8610798 350.65113356 -16 360 C-29.2534474 358.44648236 -38.24609321 350.78064966 -46.75 340.875 C-51.19732791 334.94875069 -53.51383583 327.9120828 -56 321 C-64.43803115 345.48029592 -68.70779772 372.98193101 -60 398 C-59.78037598 398.66 -59.56075195 399.32 -59.33447266 400 C-50.02352373 427.83400442 -32.35770955 449.29540736 -8.75 466.3125 C-8.18394043 466.72105225 -7.61788086 467.12960449 -7.03466797 467.55053711 C-3.15376371 470.30200887 0.83943618 472.69268225 5 475 C1.56930559 476.15374243 -0.7339748 475.83267312 -4.2265625 474.99609375 C-5.76062744 474.63197388 -5.76062744 474.63197388 -7.32568359 474.26049805 C-8.41445801 473.98890869 -9.50323242 473.71731934 -10.625 473.4375 C-11.7485791 473.16010986 -12.8721582 472.88271973 -14.02978516 472.59692383 C-57.79772843 461.56910015 -97.18507621 437.25123711 -120.88867188 397.91357422 C-145.34241357 355.80715343 -148.19065325 304.87693165 -136.4375 258.265625 C-129.1243176 230.86150541 -117.41185212 203.58164194 -100 181 C-99.01580078 179.69675781 -99.01580078 179.69675781 -98.01171875 178.3671875 C-94.32489001 173.60416582 -90.6900494 169.75869207 -86 166 C-86.01047363 166.58265625 -86.02094727 167.1653125 -86.03173828 167.765625 C-86.27717958 183.57328741 -85.49727794 198.52268485 -82 214 C-81.34 214 -80.68 214 -80 214 C-79.84217041 213.32485352 -79.68434082 212.64970703 -79.52172852 211.95410156 C-77.78361756 205.02090993 -75.33530636 199.023056 -71.9375 192.75 C-71.45071777 191.83959961 -70.96393555 190.92919922 -70.46240234 189.99121094 C-61.13937378 172.8208716 -49.1548255 157.62042938 -36.9375 142.4375 C-34.95286358 139.96265675 -32.97382676 137.48347297 -31 135 C-30.50113281 134.37303223 -30.00226563 133.74606445 -29.48828125 133.10009766 C-4.37286443 101.29423079 9.8442235 66.17242106 6.71875 25.32421875 C5.73213971 18.31359372 3.38292187 11.70302168 1.0234375 5.0546875 C0 2 0 2 0 0 Z " fill="#F96829" transform="translate(991,744)"/><path d="M0 0 C7.54875 0.061875 7.54875 0.061875 15.25 0.125 C15.25 17.615 15.25 35.105 15.25 53.125 C3.37 53.62 3.37 53.62 -8.75 54.125 C-20.9018639 56.15031065 -31.14310172 61.06107216 -39.06640625 70.73046875 C-46.25012157 80.94767871 -48.10145062 90.30461824 -48 102.5625 C-47.99395752 103.729021 -47.98791504 104.89554199 -47.98168945 106.09741211 C-47.87154654 115.72123295 -46.92892309 124.98785583 -45.36083984 134.48095703 C-38.44312953 177.40686764 -37.6178083 230.88745303 -63.625 267.78515625 C-72.97945125 279.98743439 -84.18463377 287.34231689 -97.75 294.125 C-96.29980469 294.85203125 -96.29980469 294.85203125 -94.8203125 295.59375 C-73.30539754 306.58115056 -58.34306391 322.73911518 -50.43798828 345.92919922 C-45.14455895 362.82384202 -42.36727348 380.04889936 -42.5 397.75 C-42.50604248 399.06105713 -42.51208496 400.37211426 -42.51831055 401.72290039 C-42.64486969 414.21543882 -43.77269105 426.36703441 -45.55078125 438.71875 C-49.60992869 464.38293378 -49.60992869 464.38293378 -43.75 489.125 C-43.32589844 490.00285156 -42.90179687 490.88070313 -42.46484375 491.78515625 C-36.54659129 502.71496511 -27.41772341 508.83716278 -16.01586914 513.16210938 C-12.56398911 514.17984241 -9.63080385 514.44020723 -6.0390625 514.5390625 C-4.91709473 514.57467285 -3.79512695 514.6102832 -2.63916016 514.64697266 C-1.2319873 514.68097168 0.17518555 514.7149707 1.625 514.75 C6.12125 514.87375 10.6175 514.9975 15.25 515.125 C15.25 532.945 15.25 550.765 15.25 569.125 C-22.90282284 569.125 -56.69677808 565.67818794 -85.328125 538.6953125 C-105.39430719 517.87835478 -110.48731831 489.22772753 -110.15823364 461.46469116 C-109.95554685 451.10717022 -108.58971934 441.04658555 -106.72265625 430.859375 C-101.38688425 401.11635831 -101.75846004 364.31196158 -118.75 338.125 C-126.10530825 327.74193493 -134.36490895 320.96031893 -145.5 314.9375 C-147.52831595 313.81164554 -149.55563941 312.68400142 -151.58203125 311.5546875 C-152.60248535 310.9884668 -153.62293945 310.42224609 -154.67431641 309.83886719 C-159.54032627 307.12737415 -164.37676041 304.37080642 -169.1875 301.5625 C-170.05149414 301.07434814 -170.91548828 300.58619629 -171.80566406 300.08325195 C-172.59038086 299.62136475 -173.37509766 299.15947754 -174.18359375 298.68359375 C-174.87509521 298.28454834 -175.56659668 297.88550293 -176.27905273 297.47436523 C-176.76446533 297.02907471 -177.24987793 296.58378418 -177.75 296.125 C-177.75 294.805 -177.75 293.485 -177.75 292.125 C-177.19352783 291.82432617 -176.63705566 291.52365234 -176.0637207 291.21386719 C-170.3168313 288.10451858 -164.58227338 284.97333396 -158.85546875 281.82714844 C-156.84767341 280.72664929 -154.83741263 279.63063107 -152.82421875 278.54003906 C-131.84785472 267.15970878 -116.77537034 254.74165084 -109.75 231.125 C-106.4540207 218.71809239 -104.60151375 206.58755132 -104.58203125 193.734375 C-104.5778418 192.87558243 -104.57365234 192.01678986 -104.56933594 191.13197327 C-104.5596406 188.37960107 -104.55953319 185.6273863 -104.5625 182.875 C-104.56277191 181.93337006 -104.56304382 180.99174011 -104.56332397 180.02157593 C-104.58408586 164.42010051 -105.23995873 149.1704226 -107.55078125 133.7265625 C-112.40231897 100.83439392 -111.96678296 66.32663808 -91.72265625 38.3203125 C-75.55328029 17.80310785 -53.77910587 7.53976129 -28.75 2.125 C-27.86957031 1.93373535 -26.98914063 1.7424707 -26.08203125 1.54541016 C-17.36940408 -0.13340049 -8.83682353 -0.10305068 0 0 Z " fill="#272935" transform="translate(828.75,722.875)"/><path d="M0 0 C30.19062057 0 61.46129046 0.65856315 87 19 C87.81210938 19.58136719 88.62421875 20.16273438 89.4609375 20.76171875 C109.49696725 35.9582767 120.59005675 57.73356651 124.51904297 82.23706055 C125.32652405 88.55467777 125.28813552 94.89042184 125.3125 101.25 C125.31611542 101.9733252 125.31973083 102.69665039 125.32345581 103.44189453 C125.35028613 116.89184218 123.94031529 129.78186589 121.48071289 143.0234375 C120.23538947 150.73444977 119.83057454 158.30668735 119.796875 166.11328125 C119.79117493 167.1629155 119.78547485 168.21254974 119.77960205 169.29399109 C119.77019801 171.51019296 119.76363647 173.72640852 119.75976562 175.94262695 C119.75013838 179.26474813 119.71910258 182.58622874 119.6875 185.90820312 C119.55308655 212.90678818 122.56513918 241.23686888 142.37060547 261.55175781 C152.0309656 270.54656667 163.99651376 276.43670362 175.625 282.4375 C177.93307731 283.63832726 180.23986867 284.84157887 182.54598999 286.04615784 C183.9658229 286.78677478 185.38700377 287.52481513 186.8097229 288.25987244 C189.64518404 289.73050824 192.33889517 291.22593011 195 293 C195 293.66 195 294.32 195 295 C194.30664551 295.39678955 193.61329102 295.7935791 192.89892578 296.20239258 C186.03795866 300.13307229 179.18897971 304.08369544 172.3515625 308.05517578 C170.30160213 309.24471427 168.24992987 310.43131644 166.1953125 311.61279297 C146.27030535 323.09993202 129.94789383 337.61024809 123.63671875 360.60546875 C122.61759766 364.71393756 121.76902969 368.83768111 121 373 C120.8249292 373.91910156 120.6498584 374.83820313 120.46948242 375.78515625 C119.54806182 382.09470719 119.75738837 388.50828383 119.75 394.875 C119.74832825 395.63099487 119.74665649 396.38698975 119.74493408 397.16589355 C119.74299394 411.84966361 121.05053947 426.13028069 123.64453125 440.59375 C128.71224567 470.05211874 125.28935053 504.75306112 108 530 C97.46639854 543.88450243 83.73096086 552.94292207 68 560 C67.08863281 560.41121094 66.17726563 560.82242188 65.23828125 561.24609375 C44.75173925 569.5114647 21.50003089 569 0 569 C0 551.51 0 534.02 0 516 C6.6 515.67 13.2 515.34 20 515 C34.24647726 512.048944 45.82837455 508.68169435 54.796875 496.57421875 C64.30331668 481.44391676 64.43144502 464.58742725 61.625 447.4375 C54.74880764 405.17407379 53.17456776 356.55291948 79 320 C88.05596791 308.2232777 99.45078683 300.08644113 113 294 C111.96101563 293.443125 110.92203125 292.88625 109.8515625 292.3125 C84.6078823 278.58730981 71.05163046 260.07357867 62.91015625 232.55078125 C61.88567594 228.55398898 61.04875827 224.55856657 60.3125 220.5 C60.13340088 219.52317261 60.13340088 219.52317261 59.95068359 218.52661133 C57.85997181 206.16236573 57.76354574 193.62961025 57.75 181.125 C57.74832825 180.3037262 57.74665649 179.48245239 57.74493408 178.6362915 C57.74272219 160.32489893 58.78838892 142.01341983 62.07421875 123.96875 C65.25643756 105.44872707 64.85881336 86.99962667 54.3125 71.0625 C45.90147104 60.37184637 35.13108457 56.1885141 22 54 C14.74 53.67 7.48 53.34 0 53 C0 35.51 0 18.02 0 0 Z " fill="#262834" transform="translate(1204,723)"/><path d="M0 0 C1.10859375 0.62455078 2.2171875 1.24910156 3.359375 1.89257812 C12.14062261 6.89746195 12.14062261 6.89746195 14.875 9.9375 C14.17375 10.36160156 13.4725 10.78570313 12.75 11.22265625 C-1.20751616 19.85128377 -10.85215592 29.5626876 -15.125 45.9375 C-15.125 47.2575 -15.125 48.5775 -15.125 49.9375 C-14.54234375 49.10347656 -13.9596875 48.26945312 -13.359375 47.41015625 C-3.32530069 33.47290386 9.59599352 23.84301447 26.875 20.9375 C34.70332658 20.10528404 39.9715365 21.77972171 46.8125 25.5 C47.68205322 25.95455566 48.55160645 26.40911133 49.44750977 26.87744141 C63.5885358 34.36316801 75.73048614 41.71833175 81.8125 57.3125 C85.19885931 69.0701078 82.50090841 80.16772155 77 90.6875 C69.64883971 103.45341738 59.5288759 109.38620803 45.875 113.9375 C43.52494505 114.11126164 41.16853005 114.20446127 38.8125 114.25 C37.56339844 114.28738281 36.31429688 114.32476563 35.02734375 114.36328125 C24.9820962 113.81803026 16.27053724 107.39785846 8 102.25 C6.77149562 101.4934103 5.54248044 100.73764947 4.31298828 99.98266602 C1.76465995 98.41702437 -0.78145921 96.84787795 -3.32617188 95.27636719 C-8.70233103 91.96076042 -14.10901427 88.6957367 -19.51342773 85.42648315 C-24.13399143 82.62876204 -28.74677814 79.81821738 -33.36108398 77.01019287 C-35.16780018 75.91147186 -36.97542052 74.81425052 -38.78320312 73.71728516 C-41.78786784 71.89348553 -44.78926817 70.06441757 -47.78851318 68.23171997 C-49.44964952 67.21822006 -51.11369782 66.20949768 -52.77783203 65.20092773 C-62.92954567 58.98395541 -68.84648731 53.89960224 -73.4375 42.75 C-75.63742162 30.55043467 -74.14174421 20.00412593 -67.55078125 9.40625 C-49.11031619 -15.69685395 -25.10098054 -14.56159293 0 0 Z " fill="#262834" transform="translate(1126.125,1261.0625)"/><path d="M0 0 C12.10222444 7.18972387 18.83690039 16.82320118 23.25 30.0625 C24.09159794 42.86582602 23.22523293 53.45234029 15.25 64.0625 C12.7109375 66.0546875 12.7109375 66.0546875 9.625 67.9375 C9.04161865 68.2984375 8.4582373 68.659375 7.85717773 69.03125 C6.48324642 69.87895485 5.10555463 70.72058116 3.72509766 71.55761719 C0.83157488 73.31690643 -2.0471215 75.09930928 -4.92578125 76.8828125 C-15.18876346 83.23290608 -25.47810786 89.53740377 -35.84375 95.71875 C-40.03476669 98.22434708 -44.20059757 100.77099242 -48.3684082 103.31494141 C-52.30808581 105.71867438 -56.25183026 108.11566919 -60.19677734 110.51074219 C-61.74532245 111.45189276 -63.29282335 112.39476831 -64.83837891 113.34082031 C-75.63168991 119.94110944 -84.65417051 122.68372809 -97.42578125 120.6328125 C-109.39081841 117.54136749 -119.42186593 109.54341272 -126 99.25 C-132.16993222 88.22990715 -133.86979167 76.00249094 -130.94140625 63.65234375 C-125.47736856 48.99964752 -114.14535973 42.27095814 -100.99853516 35.26513672 C-99.03736983 34.21620074 -97.10063609 33.13530716 -95.16796875 32.03515625 C-89.16527125 28.7602571 -84.58285545 27.02380586 -77.75 28.0625 C-77.04617188 28.15917969 -76.34234375 28.25585938 -75.6171875 28.35546875 C-65.00583845 30.27616096 -55.73751209 34.89613401 -47.75 42.0625 C-47.05003906 42.68125 -46.35007812 43.3 -45.62890625 43.9375 C-40.53739849 48.71139007 -37.06126403 53.94167861 -33.75 60.0625 C-34.84478126 47.74621078 -40.52770133 35.34322544 -49.5390625 26.80078125 C-54.28125254 23.07238095 -59.53815463 20.07988416 -64.75 17.0625 C-61.40758724 14.26605754 -58.09044671 12.00252911 -54.2578125 9.93359375 C-53.22269531 9.37349609 -52.18757812 8.81339844 -51.12109375 8.23632812 C-50.04988281 7.66333984 -48.97867188 7.09035156 -47.875 6.5 C-46.81152344 5.92314453 -45.74804688 5.34628906 -44.65234375 4.75195312 C-41.69838848 3.16122069 -38.73047749 1.60285677 -35.75 0.0625 C-34.77800659 -0.45618652 -34.77800659 -0.45618652 -33.78637695 -0.98535156 C-23.95843695 -5.79774265 -9.65825641 -4.53948584 0 0 Z " fill="#262833" transform="translate(972.75,1253.9375)"/><path d="M0 0 C1.15278481 3.57188628 0.93600602 6.71315213 0.75 10.4375 C0.73618261 23.84036382 7.29476388 33.53957698 14.57421875 44.25 C19.17602839 51.13645062 20.9732822 58.71319726 20 67 C16.93683699 80.3598194 9.21079588 90.10617444 -1 99 C-3.30078125 100.28125 -3.30078125 100.28125 -5 101 C-15.208832 90.32818243 -21.53378357 80.02613424 -26 66 C-26.33 65.01 -26.66 64.02 -27 63 C-27.94835772 51.37509647 -28.04908562 39.69412889 -23 29 C-22.63777344 28.14664063 -22.27554687 27.29328125 -21.90234375 26.4140625 C-17.67949471 17.10947986 -9.3879829 4.69399145 0 0 Z " fill="#FB7F21" transform="translate(1138,761)"/><path d="M0 0 C7.53382983 6.12123674 14.98395186 12.99974925 19 22 C19.37125 22.79148437 19.7425 23.58296875 20.125 24.3984375 C25.31516993 37.26573379 24.7875424 52.35989824 19.48828125 65.078125 C17.40542274 69.16730653 15.08840428 72.61448341 12 76 C11.48050781 76.60972656 10.96101563 77.21945312 10.42578125 77.84765625 C8.875 79.5625 8.875 79.5625 6 82 C1.19170595 81.73396734 -1.590716 77.93516796 -4.7421875 74.6796875 C-11.35043194 66.83668458 -14.43459191 58.84890086 -14.26953125 48.66015625 C-13.46146907 40.68493388 -8.87838359 33.73250789 -4.81835938 26.99707031 C-0.88180458 20.39442879 0.30205683 15.15672527 0.125 7.625 C0.11597656 6.88894531 0.10695313 6.15289063 0.09765625 5.39453125 C0.07430144 3.5962112 0.03843836 1.79806089 0 0 Z " fill="#FA8A1F" transform="translate(1075,666)"/><path d="M0 0 C3.50376486 3.85414135 4.66976095 7.01160355 6 12 C7.04702288 14.38815332 8.15113735 16.73784734 9.29296875 19.08203125 C9.52628906 19.71496094 9.75960937 20.34789062 10 21 C9.67 21.66 9.34 22.32 9 23 C5.28455723 16.94520437 2.63874928 10.58605865 0 4 C-8.43803115 28.48029592 -12.70779772 55.98193101 -4 81 C-3.78037598 81.66 -3.56075195 82.32 -3.33447266 83 C5.97647627 110.83400442 23.64229045 132.29540736 47.25 149.3125 C47.81605957 149.72105225 48.38211914 150.12960449 48.96533203 150.55053711 C52.84623629 153.30200887 56.83943618 155.69268225 61 158 C57.56930559 159.15374243 55.2660252 158.83267312 51.7734375 157.99609375 C50.75040527 157.75318604 49.72737305 157.51027832 48.67333984 157.26000977 C47.5848877 156.98858154 46.49643555 156.71715332 45.375 156.4375 C44.25432129 156.16156006 43.13364258 155.88562012 41.97900391 155.60131836 C26.92011228 151.81453548 12.89606204 146.92753536 -1 140 C-1 139.67 -1 139.34 -1 139 C0.39692939 139.08825916 1.79260452 139.19644834 3.1875 139.3125 C3.96480469 139.37050781 4.74210938 139.42851563 5.54296875 139.48828125 C8.50722967 140.10563925 10.42098441 141.42350976 13 143 C15.29106977 143.87109804 17.60678322 144.67883552 19.9375 145.4375 C20.90635132 145.75400513 20.90635132 145.75400513 21.89477539 146.0769043 C28.54629334 148.22518555 35.26210227 150.14162759 42 152 C42.10540926 149.78918149 42.10540926 149.78918149 41 147 C40.4225 146.855625 39.845 146.71125 39.25 146.5625 C36.13737304 145.78434326 34.33952489 144.14456448 32 142 C32 141.34 32 140.68 32 140 C31.34 140 30.68 140 30 140 C30 139.34 30 138.68 30 138 C29.34 138 28.68 138 28 138 C28 137.34 28 136.68 28 136 C27.01 136 26.02 136 25 136 C24.4225 134.9275 23.845 133.855 23.25 132.75 C21.51416443 129.68129069 19.5435929 127.45275029 17 125 C17 124.34 17 123.68 17 123 C16.4328125 122.79761719 15.865625 122.59523438 15.28125 122.38671875 C12.14982864 120.48320063 10.47779547 117.81149916 8.5 114.8125 C8.10345215 114.22243164 7.7069043 113.63236328 7.29833984 113.02441406 C6.18650352 111.35780865 5.09262831 109.67926085 4 108 C3.54882812 107.30777344 3.09765625 106.61554688 2.6328125 105.90234375 C0.34540066 102.15205224 -0.98523311 98.29165615 -2.28125 94.12890625 C-3.01878816 91.78324303 -3.01878816 91.78324303 -4.5625 88.875 C-6.18514482 85.62971036 -7.09194159 82.51115917 -8 79 C-8.34458252 77.80938965 -8.68916504 76.6187793 -9.04418945 75.39208984 C-10.23131635 70.61243054 -10.27091401 66.00493424 -10.23046875 61.1015625 C-10.23001053 60.18539154 -10.22955231 59.26922058 -10.2290802 58.32528687 C-10.22607754 56.40418184 -10.21825144 54.48307881 -10.20581055 52.56201172 C-10.18742437 49.61286884 -10.18530205 46.66403827 -10.18554688 43.71484375 C-10.18063573 41.84374727 -10.17480918 39.97265292 -10.16796875 38.1015625 C-10.16685593 37.21828278 -10.1657431 36.33500305 -10.16459656 35.42495728 C-10.11611361 29.23222722 -10.11611361 29.23222722 -9 27 C-8.8460053 25.44009075 -8.72561089 23.87675979 -8.625 22.3125 C-8.20236677 17.5817345 -7.01040851 14.27211809 -5 10 C-4.30859478 7.22111387 -4.30859478 7.22111387 -4 5 C-3.34 5 -2.68 5 -2 5 C-1.855625 4.360625 -1.71125 3.72125 -1.5625 3.0625 C-1 1 -1 1 0 0 Z " fill="#DA573E" transform="translate(935,1061)"/><path d="M0 0 C11.48667604 5.48913772 21.82465749 14.32241567 31 23 C33.18953316 24.90910034 35.39228783 26.80132083 37.6015625 28.6875 C38.06304688 29.120625 38.52453125 29.55375 39 30 C39 30.33 39 30.66 39 31 C37.35 31 35.7 31 34 31 C33.34 29.02 32.68 27.04 32 25 C30.68 25 29.36 25 28 25 C28 24.34 28 23.68 28 23 C27.443125 22.773125 26.88625 22.54625 26.3125 22.3125 C23.35823409 20.63575448 21.33152149 18.45423315 19 16 C16.73604414 13.73604414 14.95702102 13.16905482 12 12 C10.3170608 11.02763513 8.64556566 10.03435556 7 9 C7.30975468 10.77131561 7.62290425 12.54203778 7.9375 14.3125 C8.11152344 15.29863281 8.28554688 16.28476562 8.46484375 17.30078125 C8.95746847 20.08189213 8.95746847 20.08189213 10 23 C11.53254246 36.92910818 12.01865479 52.43704007 8 66 C7.67 66.33 7.34 66.66 7 67 C6.67618492 69.05769762 6.39112253 71.12154877 6.125 73.1875 C5.41508804 78.08159005 4.62573398 81.82269594 2 86 C1.34 86 0.68 86 0 86 C-0.1546875 87.8253125 -0.1546875 87.8253125 -0.3125 89.6875 C-0.78383961 93.45821688 -1.79166129 95.85736414 -4 99 C-4.515625 99.928125 -5.03125 100.85625 -5.5625 101.8125 C-6.2740625 102.8953125 -6.2740625 102.8953125 -7 104 C-7.66 104 -8.32 104 -9 104 C-7.9652988 100.60936375 -6.76668992 97.40360571 -5.23046875 94.21484375 C0.26298994 82.778987 3.53813128 71.42766153 6 59 C6.20367188 58.04867187 6.40734375 57.09734375 6.6171875 56.1171875 C8.77635589 38.53538775 6.90727918 21.63362579 1.0234375 5.0546875 C0 2 0 2 0 0 Z " fill="#E48E36" transform="translate(991,744)"/><path d="M0 0 C16.78890138 16.33894758 27.60932515 42.66860383 34.6875 64.625 C35.07180176 65.80630493 35.07180176 65.80630493 35.46386719 67.01147461 C36.60344578 70.76306989 37.17481606 73.25860695 36 77 C32.57142857 68.57142857 32.57142857 68.57142857 33 64 C32.34 64 31.68 64 31 64 C29.39644899 60.49223216 28.77963136 57.85645121 29 54 C28.34 54 27.68 54 27 54 C26.01 51.03 25.02 48.06 24 45 C23.67 45 23.34 45 23 45 C22.505 43.2365625 22.505 43.2365625 22 41.4375 C19.80191856 34.79067 16.28198825 28.8114852 12.92626953 22.69726562 C8 13.67053242 8 13.67053242 8 11 C7.38125 10.690625 6.7625 10.38125 6.125 10.0625 C4.75 9.375 3.375 8.6875 2 8 C1.93941406 9.28777344 1.87882812 10.57554687 1.81640625 11.90234375 C1.73201753 13.58074159 1.6473687 15.25912636 1.5625 16.9375 C1.52318359 17.78763672 1.48386719 18.63777344 1.44335938 19.51367188 C1.40146484 20.32255859 1.35957031 21.13144531 1.31640625 21.96484375 C1.26141968 23.08814087 1.26141968 23.08814087 1.20532227 24.23413086 C1 26 1 26 0 27 C-0.36760731 29.32817964 -0.70241581 31.6618385 -1 34 C-1.66 34 -2.32 34 -3 34 C-3.99 36.475 -3.99 36.475 -5 39 C-6.53070187 35.93859625 -5.09083989 33.32557788 -4.1875 30.1875 C-1.49066544 20.27280359 -0.73323689 10.21762631 0 0 Z " fill="#DD804C" transform="translate(1154,923)"/><path d="M0 0 C1.91556252 2.87334379 2.49477754 4.47346842 3.21875 7.76171875 C3.53259644 9.17940552 3.53259644 9.17940552 3.8527832 10.62573242 C10.87886715 43.86380061 11.57234439 76.4257497 1 109 C8.92 108.505 8.92 108.505 17 108 C13.18402407 111.81597593 7.99716721 111.11590342 2.890625 111.1328125 C1 111 1 111 0 110 C-0.76098723 101.32474557 1.55166695 93.25943678 4 85 C4.495 84.505 4.495 84.505 5 84 C8.8467631 61.41049756 6.97116562 35.25475993 1.6640625 13.0078125 C0.7134597 8.70214101 0.2936079 4.39399405 0 0 Z " fill="#DD824A" transform="translate(1097,886)"/><path d="M0 0 C1.15278481 3.57188628 0.93600602 6.71315213 0.75 10.4375 C0.73618261 23.84036382 7.29476388 33.53957698 14.57421875 44.25 C19.20547269 51.180513 20.87436306 58.66440553 20 67 C19.16606653 70.39391528 18.13731534 73.69636973 17 77 C16.67 77 16.34 77 16 77 C15.62148791 71.06997733 16.89424625 66.52760359 19 61 C18.34 61 17.68 61 17 61 C16.95875 59.906875 16.9175 58.81375 16.875 57.6875 C16.28426126 52.59805854 13.87702497 48.75484872 11.27734375 44.41796875 C10 42 10 42 10 39 C9.34 39 8.68 39 8 39 C5 34.61538462 5 34.61538462 5 32 C4.34 32 3.68 32 3 32 C-1.32142816 27.67857184 -1.88583025 20.1971851 -2.19140625 14.31640625 C-2.18799851 11.20514234 -2.13535379 8.1081241 -2 5 C-3.88294553 6.87196625 -5.72965127 8.76524401 -7.5625 10.6875 C-10 13 -10 13 -12 13 C-12.226875 14.093125 -12.45375 15.18625 -12.6875 16.3125 C-14 20 -14 20 -16.625 21.9375 C-17.40875 22.288125 -18.1925 22.63875 -19 23 C-15.9795525 14.62778873 -8.10554117 4.05277058 0 0 Z " fill="#E59247" transform="translate(1138,761)"/><path d="M0 0 C1.81395832 2.72093748 2.37231298 3.96701923 3 7.02734375 C3.165 7.82076172 3.33 8.61417969 3.5 9.43164062 C3.665 10.25857422 3.83 11.08550781 4 11.9375 C4.165 12.72962891 4.33 13.52175781 4.5 14.33789062 C4.84235441 16.00820568 5.17275705 17.68100257 5.49291992 19.35571289 C5.82865718 21.10649297 6.18535304 22.85339461 6.5637207 24.59545898 C8.3379845 33.54402269 8.26984134 42.41750716 8.20581055 51.50073242 C8.18746496 54.19264159 8.18530217 56.8842064 8.18554688 59.57617188 C8.18063279 61.31510709 8.17480495 63.05404002 8.16796875 64.79296875 C8.16685593 65.5838237 8.1657431 66.37467865 8.16459656 67.1894989 C8.11990299 72.52355414 7.66030095 77.70606592 7 83 C6.67 83 6.34 83 6 83 C5.1279304 74.0589013 4.95714758 65.22958023 5.09622192 56.2562561 C5.24300764 45.70433992 5.17370217 35.62039651 2.73046875 25.296875 C1.70762521 20.68040469 1.45380875 16.09176497 1.2109375 11.37890625 C1.26063874 9.04667566 1.26063874 9.04667566 0 8 C-0.14115161 5.32941149 -0.04247107 2.67567762 0 0 Z " fill="#DB7144" transform="translate(1191,1000)"/><path d="M0 0 C0.33 0.66 0.66 1.32 1 2 C1.66 2 2.32 2 3 2 C6.41736975 12.4799339 6.18643433 23.28266283 6.18530273 34.20141602 C6.18747306 36.53355629 6.20564156 38.86520956 6.22460938 41.19726562 C6.25423217 48.96468941 5.99158915 56.61785889 5.11328125 64.33984375 C5.03554977 65.03751358 4.9578183 65.73518341 4.87773132 66.45399475 C4.39583747 70.26140353 3.55637743 73.49959151 2 77 C1.690625 78.0725 1.38125 79.145 1.0625 80.25 C0.711875 81.1575 0.36125 82.065 0 83 C-1.485 83.495 -1.485 83.495 -3 84 C-3.1546875 85.3303125 -3.1546875 85.3303125 -3.3125 86.6875 C-4.01715907 90.0826755 -4.9554566 92.21942098 -7 95 C-7.66 95 -8.32 95 -9 95 C-7.54793711 90.47706725 -5.85834092 86.08214076 -4.0625 81.6875 C1.66211436 67.4469161 4.36523428 54.70417938 4.31567383 39.24682617 C4.31251898 37.19981241 4.33605854 35.15425803 4.36132812 33.10742188 C4.40521675 23.6931008 3.06752787 15.1785192 1 6 C0.65253675 4.00240635 0.31441091 2.00306188 0 0 Z " fill="#D7765C" transform="translate(1116,1073)"/><path d="M0 0 C0.33 0 0.66 0 1 0 C1.02719556 2.37507855 1.04693247 4.74983964 1.0625 7.125 C1.07087891 7.79015625 1.07925781 8.4553125 1.08789062 9.140625 C1.10782292 13.20681354 0.78890161 17.0120092 0 21 C-0.66 21 -1.32 21 -2 21 C-2 38.49 -2 55.98 -2 74 C-2.33 74 -2.66 74 -3 74 C-5.90763285 49.12935471 -5.96833425 24.522069 0 0 Z " fill="#DA7249" transform="translate(853,1010)"/><path d="M0 0 C1.65 0 3.3 0 5 0 C6.00691008 3.78758228 5.92807362 5.85847035 4.5625 9.5 C0.32503674 24.25264987 3.15408854 40.30248531 5.66430664 55.11328125 C5.84856201 56.2115625 6.03281738 57.30984375 6.22265625 58.44140625 C6.39547119 59.41795166 6.56828613 60.39449707 6.74633789 61.40063477 C6.99340831 63.93245263 6.79479125 65.6057223 6 68 C0.14832119 46.12721999 -3.73218004 22.96199037 4 1 C3.22914062 1.56589844 2.45828125 2.13179687 1.6640625 2.71484375 C0.66117188 3.44832031 -0.34171875 4.18179688 -1.375 4.9375 C-2.37273437 5.66839844 -3.37046875 6.39929688 -4.3984375 7.15234375 C-7 9 -7 9 -9 10 C-8.1875 7.5625 -8.1875 7.5625 -7 5 C-6.01 4.67 -5.02 4.34 -4 4 C-3.67 3.34 -3.34 2.68 -3 2 C-2.01 2 -1.02 2 0 2 C0 1.34 0 0.68 0 0 Z " fill="#DA7E53" transform="translate(1028,956)"/><path d="M0 0 C0.495 1.98 0.495 1.98 1 4 C0.34 4 -0.32 4 -1 4 C-1.19335938 4.59167969 -1.38671875 5.18335938 -1.5859375 5.79296875 C-2.94414719 9.9146645 -4.32050585 13.9950524 -6 18 C-6.66 18 -7.32 18 -8 18 C-8.226875 18.680625 -8.45375 19.36125 -8.6875 20.0625 C-11.56585646 26.50453588 -16.33626719 31.77507112 -21 37 C-21.4321582 37.48791016 -21.86431641 37.97582031 -22.30957031 38.47851562 C-23.78295676 40.13768985 -25.26527157 41.78847192 -26.75 43.4375 C-27.2342041 43.98237061 -27.7184082 44.52724121 -28.21728516 45.08862305 C-29.43684671 46.43116739 -30.71432479 47.72062712 -32 49 C-32.66 49 -33.32 49 -34 49 C-34 49.66 -34 50.32 -34 51 C-34.66 50.67 -35.32 50.34 -36 50 C-35.32195313 49.14019531 -34.64390625 48.28039062 -33.9453125 47.39453125 C-30.95698345 43.60148556 -27.97747771 39.8015667 -25 36 C-24.55205078 35.42926758 -24.10410156 34.85853516 -23.64257812 34.27050781 C-15.04843062 23.302178 -6.96237915 12.09542731 0 0 Z " fill="#E58A48" transform="translate(981,848)"/><path d="M0 0 C1.875 0.1875 1.875 0.1875 4 1 C5.25 3.5625 5.25 3.5625 6 6 C6.66 6 7.32 6 8 6 C12 10.35294118 12 10.35294118 12 14 C12.99 13.67 13.98 13.34 15 13 C15 13.99 15 14.98 15 16 C15.66 16 16.32 16 17 16 C17 16.99 17 17.98 17 19 C17.721875 19.226875 18.44375 19.45375 19.1875 19.6875 C22.58897247 21.27485382 24.41025643 23.2869353 27 26 C28.76178463 27.55130594 30.55161705 29.06357084 32.3515625 30.5703125 C35.4400267 33.24893311 37.28708616 34.86509974 38 39 C32.49507379 36.12050014 28.22712878 32.78602465 23.75 28.5 C23.1017627 27.88632568 22.45352539 27.27265137 21.78564453 26.64038086 C13.89916781 19.09894964 5.84433146 11.27031887 0 2 C0 1.34 0 0.68 0 0 Z " fill="#DD533A" transform="translate(875,1148)"/><path d="M0 0 C-15.18835033 11.78329244 -31.22791572 20.71737641 -49 28 C-49.91136719 28.391875 -50.82273437 28.78375 -51.76171875 29.1875 C-54 30 -54 30 -57 30 C-57 29.34 -57 28.68 -57 28 C-55.37191406 27.29423828 -55.37191406 27.29423828 -53.7109375 26.57421875 C-52.26558788 25.94539781 -50.82027746 25.31648677 -49.375 24.6875 C-48.66214844 24.37876953 -47.94929688 24.07003906 -47.21484375 23.75195312 C-43.97647863 22.34073897 -40.79778464 20.89759758 -37.64453125 19.30078125 C-35 18 -35 18 -32.3125 17.5 C-29.97755626 17.21828503 -29.97755626 17.21828503 -28.7265625 15.69140625 C-26.42094278 13.43273354 -23.86057296 12.03886932 -21.0625 10.4375 C-20.02222656 9.83808594 -18.98195313 9.23867187 -17.91015625 8.62109375 C-14.62047479 6.78858663 -11.57321385 5.19107128 -8 4 C-8 3.34 -8 2.68 -8 2 C-3.61016949 -1.20338983 -3.61016949 -1.20338983 0 0 Z " fill="#DC5943" transform="translate(1145,1181)"/><path d="M0 0 C2.4294516 3.6441774 2.16179575 5.71241272 2 10 C2.66 10 3.32 10 4 10 C4.23074219 11.00417969 4.46148438 12.00835938 4.69921875 13.04296875 C7.74488212 25.96122065 11.83409781 37.54109034 18.64453125 49.02734375 C20.12899051 52.28288697 20.26869533 54.46481247 20 58 C7.44669442 43.91303266 0.07733381 18.67611492 0 0 Z " fill="#D46041" transform="translate(851,1084)"/><path d="M0 0 C0.66 0.33 1.32 0.66 2 1 C-7.77545914 17.51861751 -19.27832627 30.6388958 -33 44 C-33.578125 42.109375 -33.578125 42.109375 -34 40 C-32.75 38.25 -32.75 38.25 -31 37 C-30.01 37 -29.02 37 -28 37 C-28 36.01 -28 35.02 -28 34 C-26.6875 32.3125 -26.6875 32.3125 -25 31 C-24.01 31 -23.02 31 -22 31 C-21.896875 30.360625 -21.79375 29.72125 -21.6875 29.0625 C-21.460625 28.381875 -21.23375 27.70125 -21 27 C-20.01 26.67 -19.02 26.34 -18 26 C-16.71648534 23.93211526 -16.04003022 22.20015111 -15.5625 19.8125 C-15.376875 19.214375 -15.19125 18.61625 -15 18 C-14.01 17.67 -13.02 17.34 -12 17 C-10.63169753 15.3663139 -10.63169753 15.3663139 -9.4375 13.4375 C-8.18359375 11.49609375 -8.18359375 11.49609375 -7 10 C-6.34 10 -5.68 10 -5 10 C-5 9.01 -5 8.02 -5 7 C-4.34 7 -3.68 7 -3 7 C-3 5.68 -3 4.36 -3 3 C-1.5 1.25 -1.5 1.25 0 0 Z " fill="#DE563C" transform="translate(1179,1136)"/><path d="M0 0 C0.33 0 0.66 0 1 0 C1.2246285 1.39330381 1.4289245 2.78989209 1.625 4.1875 C1.79902344 5.35345703 1.79902344 5.35345703 1.9765625 6.54296875 C2.00460883 9.48315883 1.12457181 11.29615586 0 14 C-0.36126668 16.13816354 -0.67134259 18.28542724 -0.9375 20.4375 C-1.61998594 25.25312077 -2.41679428 28.89035454 -5 33 C-5.66 33 -6.32 33 -7 33 C-7.1546875 34.8253125 -7.1546875 34.8253125 -7.3125 36.6875 C-7.78383961 40.45821688 -8.79166129 42.85736414 -11 46 C-11.515625 46.928125 -12.03125 47.85625 -12.5625 48.8125 C-13.036875 49.534375 -13.51125 50.25625 -14 51 C-14.66 51 -15.32 51 -16 51 C-14.9652988 47.60936375 -13.76668992 44.40360571 -12.23046875 41.21484375 C-5.87562531 27.98582295 -2.24925351 14.48992785 0 0 Z " fill="#E39145" transform="translate(998,797)"/><path d="M0 0 C1.65 0 3.3 0 5 0 C5 0.66 5 1.32 5 2 C5.66 2 6.32 2 7 2 C10.44419134 11.41002278 10.44419134 11.41002278 10 16 C8.31821339 13.47732009 7.09893258 11.18908177 5.875 8.4375 C5.52179688 7.65246094 5.16859375 6.86742187 4.8046875 6.05859375 C4 4 4 4 4 2 C3.34 2 2.68 2 2 2 C1.9071875 3.60875 1.9071875 3.60875 1.8125 5.25 C0.5984533 14.76003252 -4.11315789 25.27979858 -11.71484375 31.375 C-13.10153133 32.31468476 -14.5456189 33.16892509 -16 34 C-16.33 33.34 -16.66 32.68 -17 32 C-16.34 32 -15.68 32 -15 32 C-15 31.34 -15 30.68 -15 30 C-14.34 30 -13.68 30 -13 30 C-13 29.01 -13 28.02 -13 27 C-11.37064759 25.62131719 -9.70250393 24.28725907 -8 23 C-7.67 22.34 -7.34 21.68 -7 21 C-6.34 21 -5.68 21 -5 21 C-5 19.35 -5 17.7 -5 16 C-4.34 15.67 -3.68 15.34 -3 15 C-2.34359935 12.55562735 -2.34359935 12.55562735 -1.9375 9.6875 C-1.40851601 6.41304537 -0.86022452 3.20490727 0 0 Z " fill="#DB6641" transform="translate(1106,1057)"/><path d="M0 0 C0.33 0 0.66 0 1 0 C1.02505615 0.88558594 1.0501123 1.77117187 1.07592773 2.68359375 C1.67183612 25.35904278 1.67183612 25.35904278 3 48 C-1.3149954 47.43584866 -5.02408182 46.80723554 -9 45 C-5.42355152 43.7619986 -2.66305234 44.25073929 1 45 C0.85780029 44.44272217 0.71560059 43.88544434 0.5690918 43.3112793 C-1.16251047 35.77884735 -1.26481516 28.51553126 -1.1875 20.8125 C-1.18685547 19.58080078 -1.18621094 18.34910156 -1.18554688 17.08007812 C-1.15747057 11.29324038 -1.05490849 5.69650586 0 0 Z " fill="#D36D4C" transform="translate(972,1056)"/><path d="M0 0 C4.56030824 3.80475422 8.85089392 7.74969621 13 12 C12.67 12.66 12.34 13.32 12 14 C11.54625 13.505 11.0925 13.01 10.625 12.5 C9.12364481 10.77390663 9.12364481 10.77390663 7 11 C3.535 17.435 3.535 17.435 0 24 C-0.66 24 -1.32 24 -2 24 C-1.505 22.515 -1.505 22.515 -1 21 C0.75332445 14.18425987 0.15246699 6.97959996 0 0 Z " fill="#F29028" transform="translate(1075,666)"/><path d="M0 0 C0.33 0 0.66 0 1 0 C0.98428955 0.84256348 0.98428955 0.84256348 0.96826172 1.70214844 C0.75059105 15.28590033 1.36180294 28.51412779 3 42 C2.34 41.67 1.68 41.34 1 41 C-1.26396423 33.47192315 -1.23740059 26.24934111 -1.125 18.4375 C-1.11597656 17.23802734 -1.10695313 16.03855469 -1.09765625 14.80273438 C-1.07427412 11.86827691 -1.0415028 8.93424766 -1 6 C-1.99 6 -2.98 6 -4 6 C-4.33 6.99 -4.66 7.98 -5 9 C-5.66 9 -6.32 9 -7 9 C-7.33 9.99 -7.66 10.98 -8 12 C-8.66 11.67 -9.32 11.34 -10 11 C-8.52116808 9.35386588 -7.04192523 7.70810092 -5.5625 6.0625 C-4.73878906 5.14597656 -3.91507813 4.22945312 -3.06640625 3.28515625 C-1 1 -1 1 0 0 Z " fill="#D67D44" transform="translate(904,910)"/><path d="M0 0 C0.33 0 0.66 0 1 0 C1.20200913 5.15123278 1.29945641 9.27333961 -1 14 C-1.309375 15.0725 -1.61875 16.145 -1.9375 17.25 C-2.288125 18.1575 -2.63875 19.065 -3 20 C-3.99 20.33 -4.98 20.66 -6 21 C-6.103125 21.886875 -6.20625 22.77375 -6.3125 23.6875 C-7.01715907 27.0826755 -7.9554566 29.21942098 -10 32 C-10.66 32 -11.32 32 -12 32 C-10.56016961 27.52281312 -8.90024108 23.16483136 -7.125 18.8125 C-4.60888266 12.59016808 -2.23685214 6.32897576 0 0 Z " fill="#DF5B43" transform="translate(1119,1136)"/><path d="M0 0 C2.52556449 5.05112899 -0.35904706 13.66954491 -1.8046875 18.92578125 C-2.48842979 20.96724039 -3.23645827 22.98702634 -4 25 C1.28 24.67 6.56 24.34 12 24 C8.18402407 27.81597593 2.99716721 27.11590342 -2.109375 27.1328125 C-4 27 -4 27 -5 26 C-5.76098723 17.32474557 -3.44833305 9.25943678 -1 1 C-0.67 0.67 -0.34 0.34 0 0 Z " fill="#DE7340" transform="translate(1102,970)"/><path d="M0 0 C3.83388076 3.83388076 5.1452959 9.62996471 7.0625 14.625 C7.52205078 15.78902344 7.98160156 16.95304688 8.45507812 18.15234375 C10.77044901 24.15666826 12.61044479 29.56041387 13 36 C12.34 36 11.68 36 11 36 C9.57741188 32.17679443 8.75957724 29.08718695 9 25 C8.34 25 7.68 25 7 25 C6.30963522 22.92890566 5.6200161 20.85756057 4.93359375 18.78515625 C4.27139508 16.80964307 3.59550113 14.83869681 2.91015625 12.87109375 C2.54792969 11.82050781 2.18570312 10.76992188 1.8125 9.6875 C1.46832031 8.70136719 1.12414063 7.71523438 0.76953125 6.69921875 C0 4 0 4 0 0 Z " fill="#E08D49" transform="translate(1084,850)"/><path d="M0 0 C0.33 0 0.66 0 1 0 C0.66734788 5.9074429 0.20249273 9.9499153 -3 15 C-4.41303221 19.38527239 -5.51943161 23.85702095 -6.52734375 28.3515625 C-7.40438495 32.22214101 -8.28999151 35.0436271 -11 38 C-10.48575206 30.43659951 -8.54643347 23.88966011 -6.0625 16.75 C-5.70220703 15.6878125 -5.34191406 14.625625 -4.97070312 13.53125 C-3.41607866 8.97330867 -1.81759207 4.46058358 0 0 Z " fill="#DC8157" transform="translate(865,971)"/><path d="M0 0 C2 2 2 2 2.24291992 4.28735352 C2.23881104 5.22506592 2.23470215 6.16277832 2.23046875 7.12890625 C2.22853516 8.16466797 2.22660156 9.20042969 2.22460938 10.26757812 C2.21236328 11.35490234 2.20011719 12.44222656 2.1875 13.5625 C2.18685547 14.62275391 2.18621094 15.68300781 2.18554688 16.77539062 C2.15139315 22.92685654 1.80000084 28.90079363 1 35 C0.67 35 0.34 35 0 35 C-1.43624757 23.28905831 -0.69711736 11.74034161 0 0 Z " fill="#DB633B" transform="translate(1197,1048)"/><path d="M0 0 C0.33 0 0.66 0 1 0 C1.04241723 2.33294775 1.04092937 4.66702567 1 7 C0.67 7.33 0.34 7.66 0 8 C-0.65022563 15.11496896 0.19446145 20.49115055 3 27 C3.37966646 28.65672637 3.73760976 30.32070245 4 32 C-0.21536924 28.38682637 -2.38091073 23.44798559 -3 18 C-3.48279267 11.20557627 -2.77059498 6.2338387 0 0 Z " fill="#E08F3F" transform="translate(1064,704)"/><path d="M0 0 C3.45235806 4.10117709 6.26112837 8.44724611 9.0625 13 C9.49626953 13.69867187 9.93003906 14.39734375 10.37695312 15.1171875 C11.21390251 16.46751679 12.04694147 17.82028 12.87548828 19.17578125 C13.85025904 20.75708545 14.8578279 22.31808211 15.87109375 23.875 C16.24363281 24.57625 16.61617187 25.2775 17 26 C16.67 26.66 16.34 27.32 16 28 C13.10067643 25.60490662 12.49831724 23.68754757 12 20 C11.01 19.67 10.02 19.34 9 19 C7.8125 15.4375 7.8125 15.4375 7 12 C6.34 12 5.68 12 5 12 C3.98133771 10.34467377 2.98189187 8.67739862 2 7 C1.34 6.67 0.68 6.34 0 6 C0 4.02 0 2.04 0 0 Z " fill="#E18F43" transform="translate(1062,812)"/><path d="M0 0 C1.65 0 3.3 0 5 0 C-0.18356242 6.13842918 -5.57712263 12.07341663 -11 18 C-11.33 16.68 -11.66 15.36 -12 14 C-11.01 14 -10.02 14 -9 14 C-8.67 12.35 -8.34 10.7 -8 9 C-7.01 9 -6.02 9 -5 9 C-5 8.01 -5 7.02 -5 6 C-4.01 6 -3.02 6 -2 6 C-1.34 4.02 -0.68 2.04 0 0 Z " fill="#DE723D" transform="translate(1013,967)"/><path d="M0 0 C1.26346142 3.79038426 0.80586696 6.10497636 0 10 C-1.30825617 12.61651234 -2.47866352 14.51876632 -4.625 16.5 C-6.4724141 18.51536084 -6.64031493 20.33833049 -7 23 C-7.66 23 -8.32 23 -9 23 C-7.67296379 14.44798884 -4.01880768 7.55406899 0 0 Z " fill="#DE783D" transform="translate(921,933)"/><path d="M0 0 C0.33 0.66 0.66 1.32 1 2 C0.00350509 3.76797483 -0.99931592 5.53451957 -2.08984375 7.24609375 C-3.23030283 9.1144693 -3.23030283 9.1144693 -3 12 C-4.4609375 13.60546875 -4.4609375 13.60546875 -6.375 15.1875 C-7.31472656 15.98220703 -7.31472656 15.98220703 -8.2734375 16.79296875 C-10 18 -10 18 -12 18 C-10.61230906 13.9670232 -8.7201398 11.14516807 -6 7.875 C-3.86263907 5.28973622 -1.86241106 2.79361659 0 0 Z " fill="#E38648" transform="translate(944,899)"/><path d="M0 0 C1.32 0.33 2.64 0.66 4 1 C3.39671875 1.92941406 2.7934375 2.85882812 2.171875 3.81640625 C1.36448668 5.06504167 0.55720048 6.31374314 -0.25 7.5625 C-0.64574219 8.17158203 -1.04148437 8.78066406 -1.44921875 9.40820312 C-4.1110175 13.53180938 -6.59811753 17.71958101 -9 22 C-10.125 18.25 -10.125 18.25 -9 16 C-8.34 16 -7.68 16 -7 16 C-6.82984375 15.32453125 -6.6596875 14.6490625 -6.484375 13.953125 C-5.11153321 8.89989885 -4.1604716 5.44314891 0 2 C0 1.34 0 0.68 0 0 Z " fill="#D76F40" transform="translate(997,986)"/><path d="M0 0 C1.65 0 3.3 0 5 0 C6.36884358 4.51718381 5.47075246 7.58774263 4 12 C3.67 12 3.34 12 3 12 C2.9729957 10.54176788 2.95360213 9.08339325 2.9375 7.625 C2.92589844 6.81289063 2.91429687 6.00078125 2.90234375 5.1640625 C3 3 3 3 4 1 C3.22914062 1.56589844 2.45828125 2.13179687 1.6640625 2.71484375 C0.66117188 3.44832031 -0.34171875 4.18179688 -1.375 4.9375 C-2.37273437 5.66839844 -3.37046875 6.39929688 -4.3984375 7.15234375 C-7 9 -7 9 -9 10 C-8.1875 7.5625 -8.1875 7.5625 -7 5 C-6.01 4.67 -5.02 4.34 -4 4 C-3.67 3.34 -3.34 2.68 -3 2 C-2.01 2 -1.02 2 0 2 C0 1.34 0 0.68 0 0 Z " fill="#DB7944" transform="translate(1028,956)"/><path d="M0 0 C4.61586002 3.95645145 8.80181 7.69941512 13 12 C12.67 12.66 12.34 13.32 12 14 C11.44570312 13.43410156 10.89140625 12.86820313 10.3203125 12.28515625 C9.59585937 11.55167969 8.87140625 10.81820312 8.125 10.0625 C7.40570312 9.33160156 6.68640625 8.60070312 5.9453125 7.84765625 C4.12972808 5.94332001 4.12972808 5.94332001 2 5 C2.02320313 5.83144531 2.04640625 6.66289063 2.0703125 7.51953125 C2.08835937 8.60621094 2.10640625 9.69289063 2.125 10.8125 C2.14820313 11.89144531 2.17140625 12.97039063 2.1953125 14.08203125 C2 17 2 17 0 20 C0 13.4 0 6.8 0 0 Z " fill="#DA9948" transform="translate(1075,666)"/><path d="M0 0 C4.56987271 2.03105454 8.7904688 5.14856256 12 9 C12.6875 11.1875 12.6875 11.1875 13 13 C6.92044333 9.90061817 2.25906111 6.77718333 0 0 Z " fill="#D75239" transform="translate(900,1174)"/><path d="M0 0 C0.33 0 0.66 0 1 0 C0.56901343 8.96452064 -1.69889434 17.37352947 -4 26 C-4.33 26 -4.66 26 -5 26 C-5.54487269 17.96312781 -3.52621783 11.5786535 -1 4 C-0.64980417 2.67099595 -0.30809234 1.33939091 0 0 Z " fill="#D46042" transform="translate(1196,1084)"/><path d="M0 0 C0 0.66 0 1.32 0 2 C-0.99 2.66 -1.98 3.32 -3 4 C-0.69 4.33 1.62 4.66 4 5 C4 5.33 4 5.66 4 6 C-1.38027025 7.19088986 -6.45291384 8.2919519 -12 8 C-4.57142857 0 -4.57142857 0 0 0 Z " fill="#D6614A" transform="translate(1066,1211)"/><path d="M0 0 C0.33 1.32 0.66 2.64 1 4 C-1.25 6.5625 -1.25 6.5625 -4 9 C-4.515625 9.61875 -5.03125 10.2375 -5.5625 10.875 C-6.2740625 11.431875 -6.2740625 11.431875 -7 12 C-8.32 11.67 -9.64 11.34 -11 11 C-7.37 7.37 -3.74 3.74 0 0 Z " fill="#D96657" transform="translate(1094,1185)"/><path d="M0 0 C0.66 0 1.32 0 2 0 C-1 9 -4 18 -7 27 C-8.14184472 23.6252898 -7.84408845 21.60566936 -6.78515625 18.234375 C-6.37426758 16.90019531 -6.37426758 16.90019531 -5.95507812 15.5390625 C-5.66052734 14.61867188 -5.36597656 13.69828125 -5.0625 12.75 C-4.77181641 11.81414063 -4.48113281 10.87828125 -4.18164062 9.9140625 C-3.46343503 7.6063855 -2.73596262 5.30206318 -2 3 C-1.34 3 -0.68 3 0 3 C0 2.01 0 1.02 0 0 Z " fill="#D46D43" transform="translate(985,1008)"/><path d="M0 0 C0.98671946 3.06979387 1.07503932 4.95306534 0 8 C-2.27246928 12.40132526 -4.64759965 16.42079979 -9 19 C-9.66 18.67 -10.32 18.34 -11 18 C-10.62488281 17.53851562 -10.24976563 17.07703125 -9.86328125 16.6015625 C-5.7748968 11.39067452 -2.77953215 6.00182163 0 0 Z " fill="#DE7C4D" transform="translate(1147,962)"/><path d="M0 0 C3.50376486 3.85414135 4.66976095 7.01160355 6 12 C7.04702288 14.38815332 8.15113735 16.73784734 9.29296875 19.08203125 C9.52628906 19.71496094 9.75960937 20.34789062 10 21 C9.67 21.66 9.34 22.32 9 23 C4.75997987 16.09033756 1.5631201 8.68936029 -1 1 C-0.67 0.67 -0.34 0.34 0 0 Z " fill="#DA6D4A" transform="translate(935,1061)"/><path d="M0 0 C3.63 1.98 7.26 3.96 11 6 C6.49796555 7.12550861 4.22259594 6.59782314 -0.25 5.5625 C-1.51328125 5.27503906 -2.7765625 4.98757813 -4.078125 4.69140625 C-5.04234375 4.46324219 -6.0065625 4.23507812 -7 4 C-7 3.67 -7 3.34 -7 3 C-3.535 2.505 -3.535 2.505 0 2 C0 1.34 0 0.68 0 0 Z " fill="#CF7159" transform="translate(985,1213)"/><path d="M0 0 C0 4.10657204 -1.16611781 5.02787966 -4 8 C-6.86287552 10.23759043 -9.73145366 12.39883365 -13 14 C-13.99 13.67 -14.98 13.34 -16 13 C-14.64455078 11.96939453 -14.64455078 11.96939453 -13.26171875 10.91796875 C-12.07022347 10.00792905 -10.87882214 9.09776634 -9.6875 8.1875 C-8.79514648 7.50977539 -8.79514648 7.50977539 -7.88476562 6.81835938 C-5.09594339 4.68389766 -2.38275027 2.58919794 0 0 Z " fill="#D65844" transform="translate(1082,1197)"/><path d="M0 0 C2.97976672 1.48988336 3.62938943 3.75046765 5.125 6.6875 C5.66382813 7.72261719 6.20265625 8.75773437 6.7578125 9.82421875 C8.0560266 13.14323782 8.2432468 15.4729214 8 19 C3.00339907 13.65880591 1.14658386 7.10881991 0 0 Z " fill="#DE5A3D" transform="translate(863,1123)"/><path d="M0 0 C1.24913556 3.74740667 0.60145433 4.47680047 -1 8 C-1.54386345 9.26989475 -2.08547265 10.54075695 -2.625 11.8125 C-3.07875 12.864375 -3.5325 13.91625 -4 15 C-4.66 15 -5.32 15 -6 15 C-6.33 16.65 -6.66 18.3 -7 20 C-7.66 20 -8.32 20 -9 20 C-6.86233829 12.755702 -3.77315981 6.53281715 0 0 Z " fill="#DE8654" transform="translate(875,951)"/><path d="M0 0 C0.66 0.33 1.32 0.66 2 1 C0.38304324 3.65082912 -1.2448885 6.29474348 -2.875 8.9375 C-3.33519531 9.69224609 -3.79539062 10.44699219 -4.26953125 11.22460938 C-4.71425781 11.94326172 -5.15898438 12.66191406 -5.6171875 13.40234375 C-6.22989502 14.39995728 -6.22989502 14.39995728 -6.85498047 15.41772461 C-8 17 -8 17 -10 18 C-9.75 15.125 -9.75 15.125 -9 12 C-6.9375 10.625 -6.9375 10.625 -5 10 C-5 9.01 -5 8.02 -5 7 C-4.34 7 -3.68 7 -3 7 C-3 5.68 -3 4.36 -3 3 C-1.5 1.25 -1.5 1.25 0 0 Z " fill="#D65D43" transform="translate(1179,1136)"/><path d="M0 0 C1.32 0.33 2.64 0.66 4 1 C4.33 2.65 4.66 4.3 5 6 C5.598125 6.04125 6.19625 6.0825 6.8125 6.125 C9 7 9 7 10.75 9.875 C12 13 12 13 12 16 C10.1819528 13.90041007 8.37049966 11.79571273 6.5625 9.6875 C6.04623047 9.09259766 5.52996094 8.49769531 4.99804688 7.88476562 C4.50498047 7.30791016 4.01191406 6.73105469 3.50390625 6.13671875 C3.04830322 5.60780029 2.5927002 5.07888184 2.12329102 4.53393555 C1 3 1 3 0 0 Z " fill="#D4623D" transform="translate(1056,1068)"/><path d="M0 0 C2.3431213 0.25561323 4.67843403 0.59270772 7 1 C7.33 1.66 7.66 2.32 8 3 C8.99 3.33 9.98 3.66 11 4 C11 4.66 11 5.32 11 6 C11.639375 6.103125 12.27875 6.20625 12.9375 6.3125 C13.618125 6.539375 14.29875 6.76625 15 7 C15.33 7.99 15.66 8.98 16 10 C12.06342758 8.56786488 8.71068644 6.69667846 5.1875 4.4375 C4.21167969 3.81746094 3.23585938 3.19742187 2.23046875 2.55859375 C1.49441406 2.04425781 0.75835938 1.52992187 0 1 C0 0.67 0 0.34 0 0 Z " fill="#D64F39" transform="translate(913,1187)"/><path d="M0 0 C1.65 0 3.3 0 5 0 C5 0.66 5 1.32 5 2 C9.84060277 5.06242216 13.29290936 6.53411505 19 7 C19 7.33 19 7.66 19 8 C11.96538503 8.66996333 8.48012678 7.62634112 2.75 3.5078125 C1 2 1 2 0 0 Z " fill="#D5633F" transform="translate(1069,1084)"/><path d="M0 0 C0.33 0 0.66 0 1 0 C1.37136045 5.07525946 0.34005168 8.49323379 -2 13 C-2.99 13.66 -3.98 14.32 -5 15 C-4.5188509 9.22621075 -2.81532819 5.04140164 0 0 Z " fill="#E48F45" transform="translate(1118,784)"/><path d="M0 0 C3.55225704 1.71435014 6.74021634 3.77742023 10 6 C9.01 6.33 8.02 6.66 7 7 C6.01 6.34 5.02 5.68 4 5 C4.33 8.3 4.66 11.6 5 15 C3.31626595 11.6325319 2.31781585 8.84984234 1.375 5.25 C1.11460937 4.26515625 0.85421875 3.2803125 0.5859375 2.265625 C0.39257812 1.51796875 0.19921875 0.7703125 0 0 Z " fill="#D69A52" transform="translate(991,744)"/><path d="M0 0 C-2.92910944 1.95273962 -5.08132291 2.75396363 -8.4375 3.6875 C-9.38496094 3.95949219 -10.33242187 4.23148438 -11.30859375 4.51171875 C-13.98918237 4.99803744 -15.46287583 4.89369149 -18 4 C-12.23759526 0.15839684 -6.70842135 -0.23538321 0 0 Z " fill="#DB5A45" transform="translate(1088,1211)"/><path d="M0 0 C1.31712811 3.62210231 0.68301982 5.67244777 -0.75 9.1875 C-1.26820312 10.50814453 -1.26820312 10.50814453 -1.796875 11.85546875 C-3 14 -3 14 -6 15 C-4.40109514 9.80355921 -2.25861997 4.93387858 0 0 Z " fill="#D9614B" transform="translate(1113,1153)"/><path d="M0 0 C1.59190467 3.18380933 0.28749598 6.28076324 -0.4375 9.625 C-0.58509766 10.33140625 -0.73269531 11.0378125 -0.88476562 11.765625 C-1.25049493 13.51168749 -1.62447121 15.25601884 -2 17 C-2.33 17 -2.66 17 -3 17 C-3.08097324 14.72975032 -3.13917704 12.45867925 -3.1875 10.1875 C-3.22230469 8.92292969 -3.25710938 7.65835937 -3.29296875 6.35546875 C-3 3 -3 3 -1.48828125 1.05078125 C-0.75158203 0.53064453 -0.75158203 0.53064453 0 0 Z " fill="#DA734C" transform="translate(976,1039)"/><path d="M0 0 C1.12642186 3.37926557 0.96344705 3.72928278 -0.43359375 6.79296875 C-0.75263672 7.50517578 -1.07167969 8.21738281 -1.40039062 8.95117188 C-1.74263672 9.68916016 -2.08488281 10.42714844 -2.4375 11.1875 C-2.77587891 11.93708984 -3.11425781 12.68667969 -3.46289062 13.45898438 C-4.2999411 15.30992698 -5.14885404 17.15549666 -6 19 C-6.33 19 -6.66 19 -7 19 C-7 17.02 -7 15.04 -7 13 C-6.01 12.67 -5.02 12.34 -4 12 C-3.24592899 9.69342986 -2.588562 7.354248 -2 5 C-1.35800351 3.32367583 -0.70105843 1.65249487 0 0 Z " fill="#D05C42" transform="translate(1188,1116)"/><path d="M0 0 C1.875 0.1875 1.875 0.1875 4 1 C5.25 3.5625 5.25 3.5625 6 6 C6.66 6 7.32 6 8 6 C8 7.65 8 9.3 8 11 C2.19794344 5.35475578 2.19794344 5.35475578 0 2 C0 1.34 0 0.68 0 0 Z " fill="#D95A41" transform="translate(875,1148)"/><path d="M0 0 C0.33 0.66 0.66 1.32 1 2 C-0.69449646 6.10246511 -2.58870829 9.13891663 -6 12 C-6.66 12 -7.32 12 -8 12 C-8 12.66 -8 13.32 -8 14 C-8.66 13.67 -9.32 13.34 -10 13 C-5.05 6.565 -5.05 6.565 0 0 Z " fill="#E08A4F" transform="translate(955,885)"/><path d="M0 0 C1.9375 0.3125 1.9375 0.3125 4 1 C4.33 1.99 4.66 2.98 5 4 C4 5 4 5 2.15234375 5.09765625 C0.1015625 5.06510417 -1.94921875 5.03255208 -4 5 C-3.34 4.01 -2.68 3.02 -2 2 C-1.34 2 -0.68 2 0 2 C0 1.34 0 0.68 0 0 Z " fill="#EB4B31" transform="translate(1066,1211)"/><path d="M0 0 C5.3762621 2.91214197 10.17918273 6.24351901 15 10 C14.01 10.33 13.02 10.66 12 11 C9.79256409 9.63771358 7.84243112 8.27749316 5.8125 6.6875 C4.97428711 6.06198242 4.97428711 6.06198242 4.11914062 5.42382812 C2.70145825 4.33849619 1.34509484 3.17409054 0 2 C0 1.34 0 0.68 0 0 Z " fill="#E19542" transform="translate(1001,751)"/><path d="M 0 0 C 0.6599999999999999 0.32999999999999996 1.32 0.6599999999999999 2 1 C 1.01 1 0.02 1 -1 1 C -0.6699999999999999 0.6699999999999999 -0.33999999999999997 0.33999999999999997 0 0 Z" fill="#F17C30" transform="translate(950,895)"/><path d="M -3 2 C -2.01 2.33 -1.02 2.66 0 3 C -2.53363068 7.22271781 -4.56620325 9.78310162 -9 12 C -7.66666667 9.33333333 -6.33333333 6.66666667 -5 4 C -4.34 4 -3.6799999999999997 4 -3 4 C -3 3.34 -3 2.6799999999999997 -3 2 Z" fill="#F17C30" transform="translate(950,895)"/><path d="M0 0 C0.33 0.66 0.66 1.32 1 2 C-0.11962199 3.64949657 -1.24586845 5.29449838 -2.375 6.9375 C-3.00148438 7.85402344 -3.62796875 8.77054688 -4.2734375 9.71484375 C-6 12 -6 12 -8 13 C-6.94124926 9.59687262 -5.99097846 6.98646769 -4 4 C-3.34 4 -2.68 4 -2 4 C-1.34 2.68 -0.68 1.36 0 0 Z " fill="#E38140" transform="translate(1153,838)"/><path d="M0 0 C4.52048157 3.13922331 6.51545911 6.21495828 9 11 C7.35 11 5.7 11 4 11 C4 9.02 4 7.04 4 5 C3.01 4.67 2.02 4.34 1 4 C0.3125 1.9375 0.3125 1.9375 0 0 Z " fill="#E6903D" transform="translate(1046,792)"/><path d="M0 0 C1.32 0.33 2.64 0.66 4 1 C2.85760183 2.33627775 1.71098945 3.66895388 0.5625 5 C-0.07558594 5.7425 -0.71367188 6.485 -1.37109375 7.25 C-2.17740234 8.11625 -2.17740234 8.11625 -3 9 C-3.33 9 -3.66 9 -4 9 C-4 7.35 -4 5.7 -4 4 C-2.68 3.67 -1.36 3.34 0 3 C0 2.01 0 1.02 0 0 Z " fill="#E78E37" transform="translate(1087,736)"/><path d="M0 0 C1.43861294 0.08746284 2.87597508 0.19565348 4.3125 0.3125 C5.11300781 0.37050781 5.91351562 0.42851563 6.73828125 0.48828125 C9.39066259 1.08838825 10.36503879 1.85708967 12 4 C12 4.66 12 5.32 12 6 C7.76570244 4.68938409 3.92592596 3.05643741 0 1 C0 0.67 0 0.34 0 0 Z " fill="#DA5C49" transform="translate(934,1200)"/><path d="M0 0 C0.33 1.32 0.66 2.64 1 4 C-0.25 5.4375 -0.25 5.4375 -2 7 C-3.03357147 8.64605826 -4.04060332 10.30963442 -5 12 C-5.99 11.67 -6.98 11.34 -8 11 C-5.36 7.37 -2.72 3.74 0 0 Z " fill="#D9604B" transform="translate(1103,1173)"/><path d="M0 0 C3.91939465 3.80411834 7.49102731 7.81576108 11 12 C6.18579475 11.16677217 4.81953925 8.8377062 2 5 C2 4.34 2 3.68 2 3 C1.34 3 0.68 3 0 3 C0 2.01 0 1.02 0 0 Z " fill="#D15E4C" transform="translate(950,1181)"/><path d="M0 0 C0 3 0 3 -1.3125 4.60546875 C-1.869375 5.12753906 -2.42625 5.64960937 -3 6.1875 C-3.556875 6.71730469 -4.11375 7.24710938 -4.6875 7.79296875 C-5.120625 8.19128906 -5.55375 8.58960938 -6 9 C-6.99 8.67 -7.98 8.34 -9 8 C-7.87811441 6.85111717 -6.75238316 5.70598863 -5.625 4.5625 C-4.99851562 3.92441406 -4.37203125 3.28632812 -3.7265625 2.62890625 C-2 1 -2 1 0 0 Z " fill="#2F323A" transform="translate(1297,1029)"/><path d="M0 0 C2.96404505 2.80804268 5.44499019 5.18315774 7 9 C5 7.625 5 7.625 3 6 C3 5.34 3 4.68 3 4 C2.34 4 1.68 4 1 4 C1 6.31 1 8.62 1 11 C0.67 11 0.34 11 0 11 C0 7.37 0 3.74 0 0 Z " fill="#D28553" transform="translate(1154,923)"/><path d="M0 0 C2.475 0.495 2.475 0.495 5 1 C5 1.66 5 2.32 5 3 C5.61875 3.28875 6.2375 3.5775 6.875 3.875 C9 5 9 5 11 7 C7.51460083 6.35455571 4.97180943 4.89865603 2 3 C1.67 3.99 1.34 4.98 1 6 C0.67 4.02 0.34 2.04 0 0 Z " fill="#F28920" transform="translate(996,750)"/><path d="M0 0 C0.721875 0.12375 1.44375 0.2475 2.1875 0.375 C-0.14583333 2.70833333 -2.47916667 5.04166667 -4.8125 7.375 C-5.8025 7.045 -6.7925 6.715 -7.8125 6.375 C-3.50480769 0.46730769 -3.50480769 0.46730769 0 0 Z " fill="#EC4B31" transform="translate(1085.8125,1196.625)"/><path d="M0 0 C1 2 1 2 -0.125 5.4375 C-1.68880731 8.92879075 -3.479691 10.38256073 -7 12 C-5.44298069 7.32894208 -2.91552627 3.91294315 0 0 Z " fill="#E1884F" transform="translate(893,922)"/><path d="M0 0 C1.12894876 0.93274109 2.25300876 1.87140122 3.375 2.8125 C4.00148438 3.33457031 4.62796875 3.85664062 5.2734375 4.39453125 C7 6 7 6 9 9 C5.0873016 7.6957672 2.62689759 6.21065261 0 3 C0 2.01 0 1.02 0 0 Z " fill="#E18F3C" transform="translate(1030,775)"/><path d="M0 0 C1.09651823 3.41139003 0.94215473 6.20655581 0.5625 9.75 C0.46066406 10.73484375 0.35882812 11.7196875 0.25390625 12.734375 C0.12822266 13.85585938 0.12822266 13.85585938 0 15 C-0.33 15 -0.66 15 -1 15 C-1.07347656 13.82630859 -1.07347656 13.82630859 -1.1484375 12.62890625 C-1.22320313 11.61699219 -1.29796875 10.60507812 -1.375 9.5625 C-1.44460938 8.55316406 -1.51421875 7.54382813 -1.5859375 6.50390625 C-1.72257812 5.67761719 -1.85921875 4.85132813 -2 4 C-2.66 3.67 -3.32 3.34 -4 3 C-2.68 2.01 -1.36 1.02 0 0 Z " fill="#DE9F5B" transform="translate(1138,761)"/><path d="M0 0 C0.8125 1.6875 0.8125 1.6875 1 4 C-1.4375 6.75 -1.4375 6.75 -4 9 C-4 5.28703828 -2.65223411 2.65223411 0 0 Z " fill="#DF5843" transform="translate(1094,1185)"/><path d="M0 0 C0.66 1.32 1.32 2.64 2 4 C-0.70879335 5.35439668 -3.00933268 5.06501451 -6 5 C-2.25 1.125 -2.25 1.125 0 0 Z " fill="#C66D5B" transform="translate(1060,1214)"/><path d="M0 0 C-3.67259383 2.44839588 -6.54648201 4 -11 4 C-11 3.34 -11 2.68 -11 2 C-7.36576791 -0.32590854 -4.22911669 -0.16265833 0 0 Z " fill="#D95C4A" transform="translate(1099,1207)"/><path d="M0 0 C3.43752007 1.5277867 6.18953688 3.50181056 9 6 C9 6.66 9 7.32 9 8 C7 7 7 7 5 6 C4.278125 5.71125 3.55625 5.4225 2.8125 5.125 C1 4 1 4 0.25 1.875 C0.1675 1.25625 0.085 0.6375 0 0 Z " fill="#E74830" transform="translate(900,1174)"/><path d="M0 0 C0.33 0 0.66 0 1 0 C1.20086443 3.71599191 1.1519437 4.77208445 -1 8 C-1.38499891 9.65549531 -1.72793135 11.3222433 -2 13 C-2.66 13 -3.32 13 -4 13 C-3.71517632 11.58194169 -3.42181856 10.16559621 -3.125 8.75 C-2.96257813 7.96109375 -2.80015625 7.1721875 -2.6328125 6.359375 C-2.00849925 4.03168856 -1.15161458 2.10968048 0 0 Z " fill="#D98353" transform="translate(916,943)"/><path d="M0 0 C0.66 0 1.32 0 2 0 C3.38232443 1.62626404 4.71937515 3.2925002 6 5 C5.67 5.66 5.34 6.32 5 7 C3.68 6.01 2.36 5.02 1 4 C1 5.65 1 7.3 1 9 C0.67 9 0.34 9 0 9 C0 6.03 0 3.06 0 0 Z " fill="#E97735" transform="translate(1155,927)"/><path d="M0 0 C1.65 0 3.3 0 5 0 C5.33 0.99 5.66 1.98 6 3 C6.99 3.66 7.98 4.32 9 5 C7.68 5.33 6.36 5.66 5 6 C3.35 4.02 1.7 2.04 0 0 Z " fill="#E08A37" transform="translate(1073,742)"/><path d="M0 0 C2 3.75 2 3.75 2 6 C2.66 6 3.32 6 4 6 C4.33 5.34 4.66 4.68 5 4 C5 5.32 5 6.64 5 8 C3.35 8 1.7 8 0 8 C0 5.36 0 2.72 0 0 Z " fill="#E5915F" transform="translate(907,952)"/><path d="M0 0 C1.8125 0.1875 1.8125 0.1875 4 1 C5.75 3.5625 5.75 3.5625 7 6 C6.01 6.495 6.01 6.495 5 7 C5 6.34 5 5.68 5 5 C4.360625 4.731875 3.72125 4.46375 3.0625 4.1875 C1 3 1 3 0 0 Z " fill="#EB9030" transform="translate(1014,762)"/><path d="M0 0 C0.99 0.33 1.98 0.66 3 1 C2.0479279 2.00596297 1.08812654 3.00461563 0.125 4 C-0.40867187 4.556875 -0.94234375 5.11375 -1.4921875 5.6875 C-3 7 -3 7 -5 7 C-3.70700306 4.11562221 -2.34058637 2.12780579 0 0 Z " fill="#31333C" transform="translate(746,751)"/><path d="M0 0 C1.60080151 4.00200378 0.29279692 7.04556236 -1 11 C-1.33 11 -1.66 11 -2 11 C-2.05399736 9.54207116 -2.09279177 8.08357288 -2.125 6.625 C-2.15980469 5.40683594 -2.15980469 5.40683594 -2.1953125 4.1640625 C-2 2 -2 2 0 0 Z " fill="#E1763C" transform="translate(1033,957)"/><path d="M0 0 C0.33 0.66 0.66 1.32 1 2 C-2.25 8.5 -2.25 8.5 -6 11 C-4.54955729 6.89041233 -2.48889248 3.56741255 0 0 Z " fill="#D68752" transform="translate(931,917)"/><path d="M0 0 C0.66 0.66 1.32 1.32 2 2 C-0.57784846 4.64752004 -2.91648098 6.94432065 -6 9 C-5.34 7.02 -4.68 5.04 -4 3 C-3.34 3 -2.68 3 -2 3 C-2 2.34 -2 1.68 -2 1 C-1.34 0.67 -0.68 0.34 0 0 Z " fill="#F17E31" transform="translate(964,877)"/><path d="M0 0 C0.33 0 0.66 0 1 0 C1.3636198 4.24223102 0.5393228 6.58168085 -2 10 C-2.66 10 -3.32 10 -4 10 C-2.8905928 6.51329166 -1.73662334 3.22515763 0 0 Z " fill="#E49855" transform="translate(986,838)"/><path d="M0 0 C3.375 0.25 3.375 0.25 7 1 C8.4375 3.0625 8.4375 3.0625 9 5 C5.54074837 3.7508258 2.85306797 2.32472205 0 0 Z " fill="#D45645" transform="translate(920,1192)"/><path d="M0 0 C0.33 0.66 0.66 1.32 1 2 C1.66 2 2.32 2 3 2 C3 4.64 3 7.28 3 10 C0.70366176 6.55549263 0.45983515 4.06187717 0 0 Z " fill="#E26F4D" transform="translate(971,1086)"/><path d="M0 0 C0.99 0 1.98 0 3 0 C5.1519437 3.22791555 5.20086443 4.28400809 5 8 C2.74754119 5.31158141 1.11786042 3.35358125 0 0 Z " fill="#D7663E" transform="translate(1051,1060)"/><path d="M0 0 C0.33 0.66 0.66 1.32 1 2 C-0.65 3.65 -2.3 5.3 -4 7 C-4.33 6.34 -4.66 5.68 -5 5 C-3.35 3.35 -1.7 1.7 0 0 Z " fill="#EA8F3C" transform="translate(1124,777)"/><path d="M0 0 C2.97 0.495 2.97 0.495 6 1 C6 2.65 6 4.3 6 6 C3.97945196 4.35830472 1.97956942 2.69088222 0 1 C0 0.67 0 0.34 0 0 Z " fill="#DB6644" transform="translate(948,1088)"/><path d="M0 0 C0 3.57575896 -1.08840607 5.05295935 -3 8 C-3.66 7.67 -4.32 7.34 -5 7 C-2.25 1.125 -2.25 1.125 0 0 Z " fill="#ED7830" transform="translate(896,921)"/><path d="M0 0 C2.1875 0.3125 2.1875 0.3125 4 1 C2.1875 3 2.1875 3 0 5 C-0.99 5 -1.98 5 -3 5 C-3 3 -3 3 -1.75 1.3125 C-1.1725 0.879375 -0.595 0.44625 0 0 Z " fill="#E97A31" transform="translate(1140,852)"/><path d="M0 0 C0.33 0 0.66 0 1 0 C0.25 7.625 0.25 7.625 -2 11 C-2.28571429 3.57142857 -2.28571429 3.57142857 0 0 Z " fill="#DE8946" transform="translate(1156,827)"/></svg>