<?xml version="1.0" encoding="utf-8"?>
<svg xmlns="http://www.w3.org/2000/svg" viewBox="2.842 2.237 379.376 369.223" xmlns:bx="https://boxy-svg.com" width="379.376px" height="369.223px"><defs><bx:export><bx:file format="svg" path="logo.svg"/></bx:export></defs><path d="M 175.997 44.001 C 181.709 46.731 186.853 51.125 191.416 55.441 C 192.025 55.962 192.636 56.48 193.25 56.996 C 198.885 61.935 203.875 67.329 208.327 73.348 C 208.678 73.812 209.028 74.276 209.39 74.754 C 226.735 98.063 236.632 127.439 232.414 156.59 C 231.726 160.786 230.568 164.82 229.217 168.847 C 236.906 168.121 243.018 166.618 248.635 160.84 C 255.269 152.789 256.353 143.043 257.071 133.034 C 266.423 142.135 272.089 156.981 275.475 169.344 C 275.587 169.75 275.699 170.157 275.814 170.576 C 276.155 171.831 276.486 173.089 276.811 174.349 C 276.953 174.893 276.953 174.893 277.099 175.449 C 278.967 183.005 279.713 190.359 279.64 198.13 C 279.637 198.785 279.637 198.785 279.634 199.452 C 279.597 205.774 279.368 211.902 277.962 218.088 C 277.879 218.487 277.796 218.886 277.711 219.296 C 273.829 237.909 262.851 254.855 247.044 265.612 C 241.102 269.48 234.811 272.68 228.223 275.288 C 227.887 275.422 227.553 275.555 227.207 275.692 C 221.03 278.108 214.041 280.54 207.332 280.262 C 208.795 278.694 210.315 277.56 212.12 276.407 C 224.332 268.349 232.867 257.827 237.86 244.077 C 238.038 243.593 238.038 243.593 238.219 243.1 C 240.009 237.909 240.335 232.617 240.317 227.164 C 240.315 226.146 240.327 225.128 240.34 224.11 C 240.37 217.949 239.488 212.04 237.113 206.306 C 235.531 202.344 235.531 202.344 235.186 200.68 C 234.858 200.68 234.529 200.68 234.191 200.68 C 234.16 201.213 234.13 201.747 234.098 202.296 C 233.472 207.198 231.054 212.153 227.305 215.401 C 225.262 216.857 223.423 217.53 220.901 217.358 C 214.458 215.857 209.901 208.433 206.557 203.167 C 200.634 193.572 196.592 183.503 194.897 172.328 C 194.846 171.993 194.795 171.657 194.743 171.312 C 194.405 168.876 194.304 166.482 194.306 164.028 C 194.307 163.64 194.307 163.252 194.308 162.852 C 194.355 158.388 194.903 154.168 196.39 149.946 C 189.112 154.681 183.085 161.008 178.483 168.349 C 178.29 168.657 178.097 168.965 177.898 169.283 C 173.309 176.73 170.359 184.55 168.748 193.138 C 168.604 193.866 168.443 194.59 168.266 195.31 C 167.359 199.173 167.409 203.017 167.447 206.959 C 167.451 207.671 167.454 208.383 167.457 209.094 C 167.486 213.762 167.61 218.412 168.038 223.062 C 161.446 222.289 156.973 218.477 152.744 213.55 C 150.532 210.602 149.379 207.102 148.143 203.664 C 143.946 215.84 141.822 229.519 146.153 241.963 C 146.262 242.291 146.371 242.62 146.484 242.958 C 151.115 256.802 159.902 267.477 171.644 275.941 C 171.926 276.144 172.207 276.347 172.497 276.557 C 174.428 277.925 176.414 279.115 178.483 280.262 C 176.777 280.836 175.631 280.676 173.894 280.26 C 173.131 280.079 173.131 280.079 172.353 279.894 C 171.811 279.759 171.27 279.624 170.712 279.485 C 170.153 279.347 169.594 279.209 169.018 279.067 C 147.248 273.582 127.658 261.486 115.867 241.92 C 103.704 220.977 102.288 195.645 108.134 172.461 C 111.771 158.83 117.597 145.261 126.257 134.029 C 126.747 133.381 126.747 133.381 127.246 132.72 C 129.08 130.351 130.888 128.438 133.221 126.568 C 133.215 126.858 133.21 127.148 133.205 127.447 C 133.083 135.309 133.471 142.745 135.21 150.443 C 135.539 150.443 135.867 150.443 136.205 150.443 C 136.284 150.107 136.362 149.772 136.443 149.425 C 137.307 145.977 138.526 142.994 140.215 139.874 C 140.457 139.42 140.7 138.968 140.949 138.501 C 145.586 129.961 151.547 122.4 157.624 114.848 C 158.611 113.618 159.596 112.384 160.577 111.149 C 160.826 110.837 161.074 110.526 161.329 110.204 C 173.821 94.384 180.893 76.915 179.339 56.597 C 178.848 53.11 177.679 49.822 176.505 46.516 C 175.997 44.996 175.997 44.996 175.997 44.001 Z" style="" fill="#F96829"/><path d="M 95.295 33.494 C 99.05 33.525 99.05 33.525 102.88 33.556 C 102.88 42.256 102.88 50.955 102.88 59.918 C 96.971 60.164 96.971 60.164 90.943 60.415 C 84.898 61.423 79.805 63.865 75.863 68.675 C 72.291 73.757 71.369 78.411 71.42 84.508 C 71.423 85.088 71.426 85.668 71.429 86.266 C 71.484 91.053 71.953 95.662 72.733 100.384 C 76.174 121.735 76.584 148.335 63.648 166.688 C 58.995 172.757 53.422 176.415 46.675 179.789 C 47.396 180.151 47.396 180.151 48.132 180.52 C 58.833 185.985 66.276 194.022 70.207 205.556 C 72.84 213.959 74.222 222.527 74.156 231.331 C 74.153 231.983 74.15 232.635 74.147 233.307 C 74.084 239.521 73.523 245.565 72.638 251.709 C 70.619 264.474 70.619 264.474 73.534 276.78 C 73.745 277.217 73.956 277.654 74.173 278.103 C 77.117 283.54 81.657 286.585 87.329 288.736 C 89.046 289.243 90.505 289.372 92.291 289.421 C 92.849 289.439 93.407 289.456 93.982 289.475 C 94.682 289.492 95.382 289.509 96.103 289.526 C 98.339 289.588 100.576 289.649 102.88 289.713 C 102.88 298.576 102.88 307.44 102.88 316.572 C 83.903 316.572 67.094 314.857 52.854 301.436 C 42.873 291.082 40.34 276.832 40.503 263.023 C 40.604 257.871 41.283 252.866 42.212 247.799 C 44.866 233.006 44.681 214.7 36.23 201.674 C 32.571 196.51 28.463 193.137 22.925 190.141 C 21.916 189.581 20.907 189.02 19.899 188.459 C 19.392 188.177 18.884 187.895 18.361 187.605 C 15.941 186.256 13.535 184.885 11.142 183.488 C 10.713 183.246 10.283 183.003 9.84 182.753 C 9.45 182.523 9.06 182.293 8.657 182.056 C 8.314 181.858 7.969 181.659 7.615 181.455 C 7.374 181.234 7.132 181.012 6.884 180.784 C 6.884 180.127 6.884 179.471 6.884 178.794 C 7.16 178.645 7.437 178.495 7.722 178.341 C 10.581 176.794 13.433 175.237 16.281 173.672 C 17.28 173.125 18.28 172.58 19.282 172.037 C 29.715 166.377 37.212 160.2 40.706 148.454 C 42.346 142.282 43.267 136.249 43.277 129.856 C 43.279 129.428 43.281 129.002 43.283 128.561 C 43.288 127.192 43.288 125.823 43.286 124.454 C 43.286 123.986 43.286 123.518 43.286 123.035 C 43.276 115.275 42.949 107.69 41.8 100.008 C 39.387 83.648 39.604 66.485 49.673 52.554 C 57.716 42.349 68.546 37.244 80.995 34.551 C 81.433 34.456 81.871 34.361 82.322 34.263 C 86.655 33.427 90.899 33.443 95.295 33.494 Z" style="fill: rgb(255, 255, 255);"/><path d="M 281.941 33.556 C 296.957 33.556 312.511 33.884 325.214 43.007 C 325.618 43.296 326.022 43.585 326.438 43.883 C 336.404 51.441 341.921 62.272 343.875 74.46 C 344.277 77.603 344.258 80.754 344.27 83.917 C 344.272 84.277 344.274 84.637 344.275 85.007 C 344.289 91.697 343.587 98.109 342.364 104.695 C 341.745 108.53 341.543 112.297 341.527 116.179 C 341.524 116.702 341.521 117.223 341.518 117.762 C 341.513 118.864 341.51 119.966 341.508 121.069 C 341.503 122.721 341.488 124.373 341.472 126.025 C 341.405 139.454 342.903 153.545 352.754 163.65 C 357.56 168.123 363.511 171.054 369.295 174.038 C 370.443 174.635 371.591 175.234 372.737 175.833 C 373.444 176.202 374.151 176.569 374.858 176.934 C 376.268 177.665 377.608 178.409 378.932 179.292 C 378.932 179.62 378.932 179.948 378.932 180.287 C 378.587 180.484 378.242 180.681 377.887 180.884 C 374.474 182.84 371.068 184.805 367.667 186.78 C 366.647 187.372 365.627 187.962 364.605 188.55 C 354.694 194.263 346.576 201.48 343.437 212.918 C 342.929 214.962 342.508 217.013 342.125 219.083 C 342.038 219.54 341.951 219.997 341.861 220.468 C 341.403 223.607 341.507 226.797 341.503 229.963 C 341.502 230.34 341.502 230.716 341.501 231.103 C 341.5 238.407 342.15 245.509 343.44 252.704 C 345.961 267.356 344.258 284.616 335.659 297.173 C 330.419 304.079 323.588 308.585 315.763 312.095 C 315.31 312.3 314.857 312.504 314.39 312.715 C 304.2 316.826 292.635 316.572 281.941 316.572 C 281.941 307.872 281.941 299.173 281.941 290.21 C 285.224 290.046 288.506 289.882 291.889 289.713 C 298.974 288.245 304.735 286.57 309.196 280.548 C 313.925 273.022 313.988 264.638 312.592 256.107 C 309.172 235.086 308.389 210.902 321.235 192.721 C 325.739 186.864 331.407 182.816 338.146 179.789 C 337.629 179.512 337.112 179.235 336.58 178.95 C 324.024 172.123 317.281 162.914 313.232 149.225 C 312.722 147.237 312.306 145.249 311.939 143.231 C 311.85 142.745 311.85 142.745 311.76 142.249 C 310.72 136.099 310.672 129.866 310.665 123.646 C 310.664 123.238 310.664 122.829 310.663 122.408 C 310.662 113.3 311.181 104.192 312.816 95.217 C 314.399 86.006 314.201 76.829 308.955 68.902 C 304.772 63.585 299.415 61.504 292.883 60.415 C 289.272 60.251 285.661 60.087 281.941 59.918 C 281.941 51.219 281.941 42.519 281.941 33.556 Z" style="fill: rgb(255, 255, 255);"/><path d="M 243.206 301.184 C 243.758 301.494 244.309 301.805 244.877 302.125 C 249.245 304.614 249.245 304.614 250.605 306.126 C 250.256 306.337 249.907 306.549 249.548 306.766 C 242.606 311.058 237.809 315.888 235.683 324.033 C 235.683 324.689 235.683 325.346 235.683 326.022 C 235.973 325.607 236.263 325.192 236.561 324.765 C 241.553 317.833 247.979 313.043 256.574 311.598 C 260.467 311.184 263.088 312.017 266.49 313.867 C 266.923 314.093 267.355 314.319 267.801 314.552 C 274.835 318.276 280.874 321.934 283.899 329.69 C 285.584 335.539 284.242 341.059 281.506 346.291 C 277.849 352.64 272.816 355.591 266.024 357.855 C 264.855 357.942 263.683 357.988 262.511 358.011 C 261.89 358.029 261.269 358.048 260.629 358.067 C 255.632 357.796 251.299 354.603 247.186 352.042 C 246.574 351.666 245.963 351.29 245.352 350.915 C 244.084 350.136 242.818 349.355 241.552 348.573 C 238.878 346.924 236.189 345.3 233.5 343.674 C 231.202 342.283 228.908 340.885 226.613 339.488 C 225.714 338.941 224.815 338.396 223.916 337.85 C 222.422 336.943 220.929 336.033 219.437 335.122 C 218.61 334.618 217.783 334.116 216.955 333.614 C 211.906 330.522 208.963 327.993 206.679 322.447 C 205.585 316.379 206.329 311.134 209.607 305.862 C 218.78 293.376 230.721 293.941 243.206 301.184 Z" style="fill: rgb(255, 255, 255);"/><path d="M 166.919 297.64 C 172.939 301.216 176.289 306.008 178.483 312.593 C 178.902 318.961 178.471 324.227 174.504 329.504 C 173.241 330.495 173.241 330.495 171.707 331.431 C 171.416 331.611 171.126 331.79 170.827 331.975 C 170.144 332.397 169.458 332.815 168.772 333.232 C 167.332 334.107 165.901 334.994 164.469 335.881 C 159.364 339.039 154.247 342.175 149.091 345.25 C 147.006 346.496 144.934 347.763 142.861 349.028 C 140.902 350.224 138.94 351.416 136.978 352.607 C 136.208 353.075 135.438 353.544 134.669 354.015 C 129.3 357.298 124.813 358.662 118.46 357.642 C 112.509 356.104 107.52 352.126 104.248 347.006 C 101.179 341.525 100.333 335.443 101.79 329.3 C 104.508 322.012 110.144 318.665 116.683 315.18 C 117.659 314.659 118.622 314.121 119.583 313.574 C 122.569 311.945 124.848 311.081 128.247 311.598 C 128.597 311.646 128.947 311.694 129.308 311.743 C 134.586 312.699 139.196 314.997 143.169 318.561 C 143.517 318.869 143.865 319.177 144.224 319.494 C 146.756 321.868 148.485 324.47 150.132 327.514 C 149.588 321.388 146.761 315.219 142.279 310.971 C 139.92 309.116 137.306 307.628 134.713 306.126 C 136.375 304.736 138.025 303.61 139.932 302.581 C 140.447 302.302 140.961 302.023 141.492 301.736 C 142.025 301.451 142.557 301.166 143.107 300.873 C 143.635 300.586 144.165 300.299 144.71 300.004 C 146.178 299.212 147.655 298.437 149.137 297.671 C 149.621 297.413 149.621 297.413 150.114 297.15 C 155.002 294.756 162.115 295.382 166.919 297.64 Z" style="fill: rgb(255, 255, 255);"/><path d="M 249.113 52.457 C 249.686 54.234 249.579 55.796 249.486 57.648 C 249.479 64.315 252.741 69.139 256.362 74.467 C 258.651 77.892 259.545 81.66 259.061 85.782 C 257.537 92.427 253.694 97.275 248.616 101.699 C 247.471 102.336 247.471 102.336 246.626 102.694 C 241.548 97.385 238.402 92.261 236.181 85.285 C 236.017 84.793 235.853 84.3 235.683 83.793 C 235.212 78.011 235.162 72.201 237.673 66.881 C 237.853 66.457 238.033 66.032 238.219 65.595 C 240.319 60.967 244.443 54.792 249.113 52.457 Z" style="" fill="#FB7F21"/><path d="M 217.777 5.207 C 221.525 8.25 225.23 11.671 227.228 16.148 C 227.412 16.541 227.597 16.935 227.787 17.34 C 230.369 23.741 230.106 31.248 227.471 37.574 C 226.434 39.608 225.282 41.323 223.746 43.007 C 223.487 43.31 223.229 43.613 222.963 43.926 C 222.192 44.778 222.192 44.778 220.762 45.991 C 218.37 45.859 216.986 43.969 215.419 42.35 C 212.131 38.449 210.598 34.476 210.68 29.408 C 211.081 25.441 213.361 21.983 215.381 18.633 C 217.339 15.349 217.928 12.744 217.84 8.998 C 217.835 8.632 217.831 8.265 217.826 7.887 C 217.814 6.992 217.796 6.097 217.777 5.207 Z" style="" fill="#FA8A1F"/><path d="M 148.143 201.674 C 149.886 203.591 150.465 205.162 151.127 207.643 C 151.648 208.831 152.197 210 152.765 211.166 C 152.881 211.48 152.997 211.795 153.117 212.12 C 152.952 212.448 152.788 212.776 152.619 213.114 C 150.771 210.103 149.455 206.94 148.143 203.664 C 143.946 215.84 141.822 229.519 146.153 241.963 C 146.262 242.291 146.371 242.62 146.484 242.958 C 151.115 256.802 159.902 267.477 171.644 275.941 C 171.926 276.144 172.207 276.348 172.497 276.557 C 174.428 277.925 176.414 279.115 178.483 280.262 C 176.777 280.836 175.631 280.676 173.894 280.26 C 173.385 280.139 172.876 280.018 172.352 279.894 C 171.811 279.759 171.269 279.624 170.712 279.485 C 170.154 279.347 169.597 279.211 169.023 279.069 C 161.532 277.185 154.557 274.755 147.645 271.309 C 147.645 271.145 147.645 270.981 147.645 270.812 C 148.34 270.855 149.034 270.909 149.728 270.967 C 150.115 270.996 150.501 271.025 150.9 271.054 C 152.374 271.362 153.326 272.017 154.609 272.801 C 155.748 273.235 156.9 273.636 158.059 274.013 C 158.541 274.171 158.541 274.171 159.033 274.332 C 162.341 275.4 165.682 276.354 169.033 277.278 C 169.085 276.178 169.085 276.178 168.536 274.791 C 168.248 274.719 167.961 274.647 167.665 274.573 C 166.117 274.186 165.223 273.37 164.059 272.304 C 164.059 271.976 164.059 271.647 164.059 271.309 C 163.731 271.309 163.403 271.309 163.064 271.309 C 163.064 270.981 163.064 270.653 163.064 270.314 C 162.736 270.314 162.408 270.314 162.07 270.314 C 162.07 269.986 162.07 269.658 162.07 269.32 C 161.577 269.32 161.085 269.32 160.577 269.32 C 160.29 268.786 160.003 268.253 159.707 267.703 C 158.844 266.177 157.863 265.068 156.598 263.848 C 156.598 263.52 156.598 263.192 156.598 262.853 C 156.316 262.753 156.034 262.652 155.743 262.549 C 154.186 261.602 153.354 260.273 152.37 258.781 C 152.173 258.487 151.976 258.194 151.773 257.891 C 151.22 257.063 150.675 256.228 150.132 255.393 C 149.908 255.048 149.684 254.704 149.452 254.349 C 148.314 252.484 147.653 250.564 147.008 248.493 C 146.641 247.326 146.641 247.326 145.873 245.88 C 145.066 244.266 144.615 242.715 144.164 240.968 C 143.992 240.376 143.821 239.784 143.644 239.174 C 143.054 236.796 143.034 234.505 143.054 232.065 C 143.054 231.61 143.054 231.154 143.055 230.685 C 143.056 229.729 143.06 228.774 143.066 227.818 C 143.075 226.351 143.077 224.885 143.076 223.418 C 143.079 222.487 143.082 221.557 143.085 220.625 C 143.086 220.186 143.086 219.747 143.087 219.294 C 143.111 216.214 143.111 216.214 143.666 215.104 C 143.743 214.328 143.802 213.551 143.853 212.772 C 144.063 210.42 144.655 208.773 145.656 206.648 C 145.999 205.266 145.999 205.266 146.153 204.161 C 146.481 204.161 146.81 204.161 147.148 204.161 C 147.219 203.844 147.292 203.525 147.365 203.197 C 147.645 202.172 147.645 202.172 148.143 201.674 Z" style="" fill="#DA573E"/><path d="M 175.997 44.001 C 181.71 46.732 186.852 51.125 191.416 55.441 C 192.504 56.391 193.6 57.332 194.699 58.27 C 194.929 58.486 195.158 58.701 195.395 58.923 C 195.395 59.087 195.395 59.251 195.395 59.421 C 194.574 59.421 193.753 59.421 192.908 59.421 C 192.58 58.436 192.251 57.451 191.913 56.436 C 191.256 56.436 190.6 56.436 189.923 56.436 C 189.923 56.108 189.923 55.78 189.923 55.441 C 189.646 55.329 189.369 55.216 189.084 55.099 C 187.615 54.266 186.606 53.18 185.447 51.96 C 184.321 50.834 183.436 50.552 181.965 49.97 C 181.128 49.487 180.296 48.992 179.478 48.478 C 179.632 49.359 179.788 50.24 179.944 51.12 C 180.031 51.611 180.117 52.102 180.207 52.607 C 180.452 53.99 180.452 53.99 180.97 55.441 C 181.732 62.37 181.975 70.083 179.976 76.829 C 179.812 76.993 179.647 77.158 179.478 77.327 C 179.317 78.35 179.175 79.376 179.043 80.404 C 178.69 82.838 178.297 84.7 176.991 86.777 C 176.663 86.777 176.335 86.777 175.997 86.777 C 175.919 87.685 175.919 87.685 175.841 88.611 C 175.607 90.487 175.105 91.68 174.007 93.243 C 173.75 93.705 173.494 94.166 173.23 94.642 C 172.876 95.181 172.876 95.181 172.515 95.73 C 172.187 95.73 171.858 95.73 171.52 95.73 C 172.035 94.043 172.631 92.449 173.395 90.863 C 176.127 85.175 177.756 79.529 178.981 73.348 C 179.082 72.875 179.183 72.401 179.288 71.914 C 180.362 63.168 179.432 54.762 176.505 46.516 C 175.997 44.996 175.997 44.996 175.997 44.001 Z" style="" fill="#E48E36"/><path d="M 257.071 133.034 C 265.422 141.161 270.804 154.257 274.324 165.178 C 274.516 165.766 274.516 165.766 274.711 166.365 C 275.277 168.231 275.562 169.472 274.977 171.334 C 273.272 167.141 273.272 167.141 273.485 164.867 C 273.157 164.867 272.829 164.867 272.49 164.867 C 271.693 163.123 271.386 161.811 271.496 159.894 C 271.167 159.894 270.839 159.894 270.501 159.894 C 270.008 158.416 269.516 156.939 269.009 155.417 C 268.844 155.417 268.68 155.417 268.511 155.417 C 268.265 154.54 268.265 154.54 268.014 153.645 C 266.921 150.339 265.17 147.365 263.501 144.324 C 261.05 139.834 261.05 139.834 261.05 138.506 C 260.742 138.352 260.435 138.198 260.118 138.039 C 259.434 137.697 258.75 137.355 258.066 137.014 C 258.036 137.654 258.006 138.294 257.975 138.954 C 257.933 139.79 257.89 140.624 257.848 141.459 C 257.829 141.882 257.809 142.305 257.789 142.741 C 257.768 143.142 257.747 143.545 257.726 143.96 C 257.698 144.518 257.698 144.518 257.671 145.088 C 257.569 145.967 257.569 145.967 257.071 146.464 C 256.888 147.622 256.722 148.783 256.574 149.946 C 256.246 149.946 255.917 149.946 255.579 149.946 C 255.087 151.177 255.087 151.177 254.584 152.433 C 253.823 150.91 254.539 149.61 254.988 148.049 C 256.33 143.118 256.707 138.117 257.071 133.034 Z" style="" fill="#DD804C"/><path d="M 228.72 114.631 C 229.672 116.06 229.961 116.856 230.321 118.492 C 230.477 119.197 230.477 119.197 230.636 119.916 C 234.131 136.449 234.476 152.645 229.217 168.847 C 233.157 168.6 233.157 168.6 237.176 168.349 C 235.278 170.247 232.698 169.899 230.157 169.908 C 229.217 169.841 229.217 169.841 228.72 169.344 C 228.341 165.029 229.492 161.017 230.71 156.909 C 230.956 156.663 230.956 156.663 231.207 156.412 C 233.12 145.176 232.187 132.167 229.548 121.101 C 229.075 118.959 228.866 116.817 228.72 114.631 Z" style="" fill="#DD824A"/><path d="M 249.113 52.457 C 249.686 54.234 249.579 55.796 249.486 57.648 C 249.479 64.315 252.741 69.139 256.362 74.467 C 258.665 77.914 259.496 81.636 259.061 85.782 C 258.646 87.47 258.134 89.113 257.569 90.756 C 257.404 90.756 257.24 90.756 257.071 90.756 C 256.883 87.807 257.516 85.547 258.563 82.798 C 258.235 82.798 257.907 82.798 257.569 82.798 C 257.548 82.254 257.527 81.711 257.506 81.15 C 257.213 78.619 256.015 76.707 254.722 74.55 C 254.087 73.348 254.087 73.348 254.087 71.855 C 253.759 71.855 253.43 71.855 253.092 71.855 C 251.6 69.674 251.6 69.674 251.6 68.374 C 251.272 68.374 250.943 68.374 250.605 68.374 C 248.455 66.224 248.175 62.503 248.023 59.578 C 248.025 58.03 248.051 56.49 248.118 54.944 C 247.182 55.875 246.263 56.817 245.351 57.773 C 244.139 58.923 244.139 58.923 243.144 58.923 C 243.031 59.467 242.918 60.011 242.802 60.571 C 242.15 62.405 242.15 62.405 240.844 63.368 C 240.454 63.543 240.064 63.718 239.663 63.897 C 241.165 59.733 245.081 54.473 249.113 52.457 Z" style="" fill="#E59247"/><path d="M 275.475 171.334 C 276.377 172.687 276.655 173.307 276.967 174.829 C 277.049 175.224 277.131 175.618 277.216 176.025 C 277.298 176.436 277.38 176.847 277.464 177.271 C 277.546 177.665 277.628 178.059 277.713 178.465 C 277.883 179.296 278.048 180.128 278.207 180.961 C 278.374 181.831 278.551 182.7 278.74 183.567 C 279.622 188.018 279.588 192.431 279.556 196.95 C 279.547 198.289 279.546 199.627 279.546 200.966 C 279.544 201.831 279.541 202.696 279.537 203.561 C 279.537 203.954 279.536 204.348 279.535 204.753 C 279.514 207.406 279.285 209.984 278.956 212.617 C 278.792 212.617 278.628 212.617 278.459 212.617 C 278.025 208.17 277.94 203.778 278.009 199.315 C 278.083 194.066 278.048 189.051 276.833 183.916 C 276.324 181.62 276.198 179.338 276.077 176.993 C 276.102 175.833 276.102 175.833 275.475 175.313 C 275.405 173.984 275.453 172.665 275.475 171.334 Z" style="" fill="#DB7144"/><path d="M 238.17 207.643 C 238.335 207.971 238.499 208.3 238.668 208.638 C 238.996 208.638 239.324 208.638 239.663 208.638 C 241.362 213.851 241.247 219.224 241.247 224.654 C 241.248 225.814 241.257 226.974 241.266 228.134 C 241.281 231.998 241.15 235.804 240.714 239.645 C 240.675 239.992 240.636 240.339 240.597 240.697 C 240.357 242.59 239.939 244.201 239.165 245.942 C 239.011 246.475 238.857 247.009 238.699 247.559 C 238.525 248.01 238.35 248.461 238.17 248.927 C 237.432 249.173 237.432 249.173 236.678 249.424 C 236.601 250.085 236.601 250.085 236.523 250.76 C 236.172 252.45 235.705 253.512 234.689 254.895 C 234.36 254.895 234.032 254.895 233.694 254.895 C 234.416 252.646 235.257 250.459 236.149 248.273 C 238.997 241.191 240.342 234.852 240.317 227.164 C 240.315 226.146 240.327 225.128 240.34 224.11 C 240.361 219.428 239.696 215.192 238.668 210.627 C 238.495 209.634 238.327 208.639 238.17 207.643 Z" style="" fill="#D7765C"/><path d="M 107.357 176.307 C 107.521 176.307 107.685 176.307 107.854 176.307 C 107.867 177.489 107.877 178.67 107.885 179.851 C 107.889 180.182 107.893 180.513 107.898 180.854 C 107.908 182.876 107.749 184.769 107.357 186.753 C 107.028 186.753 106.7 186.753 106.362 186.753 C 106.362 195.452 106.362 204.151 106.362 213.114 C 106.198 213.114 106.034 213.114 105.864 213.114 C 104.418 200.744 104.388 188.504 107.357 176.307 Z" style="" fill="#DA7249"/><path d="M 194.4 149.448 C 195.221 149.448 196.041 149.448 196.887 149.448 C 197.388 151.332 197.349 152.362 196.669 154.174 C 194.562 161.512 195.969 169.494 197.217 176.861 C 197.309 177.407 197.401 177.954 197.495 178.516 C 197.581 179.002 197.667 179.488 197.755 179.989 C 197.878 181.248 197.78 182.08 197.384 183.271 C 194.474 172.391 192.544 160.869 196.39 149.946 C 196.006 150.227 195.623 150.509 195.228 150.799 C 194.729 151.163 194.23 151.528 193.716 151.904 C 193.22 152.268 192.723 152.631 192.212 153.006 C 190.918 153.925 190.918 153.925 189.923 154.422 C 190.327 153.21 190.327 153.21 190.918 151.935 C 191.411 151.771 191.903 151.607 192.41 151.438 C 192.575 151.11 192.739 150.781 192.908 150.443 C 193.4 150.443 193.893 150.443 194.4 150.443 C 194.4 150.115 194.4 149.787 194.4 149.448 Z" style="" fill="#DA7E53"/><path d="M 171.023 95.73 C 171.269 96.715 171.269 96.715 171.52 97.72 C 171.192 97.72 170.863 97.72 170.525 97.72 C 170.429 98.014 170.333 98.308 170.234 98.612 C 169.558 100.662 168.873 102.691 168.038 104.683 C 167.71 104.683 167.382 104.683 167.044 104.683 C 166.931 105.022 166.818 105.36 166.701 105.709 C 165.27 108.913 162.897 111.535 160.577 114.134 C 160.363 114.376 160.148 114.619 159.926 114.869 C 159.193 115.694 158.456 116.515 157.717 117.335 C 157.477 117.606 157.235 117.877 156.988 118.157 C 156.381 118.824 155.746 119.466 155.106 120.102 C 154.778 120.102 154.45 120.102 154.111 120.102 C 154.111 120.431 154.111 120.759 154.111 121.097 C 153.783 120.933 153.455 120.769 153.117 120.6 C 153.454 120.172 153.791 119.744 154.139 119.303 C 155.625 117.417 157.107 115.527 158.588 113.636 C 158.811 113.352 159.034 113.068 159.263 112.776 C 163.537 107.32 167.559 101.746 171.023 95.73 Z" style="" fill="#E58A48"/><path d="M 118.299 244.947 C 119.232 245.04 119.232 245.04 120.289 245.445 C 120.911 246.719 120.911 246.719 121.284 247.932 C 121.612 247.932 121.94 247.932 122.278 247.932 C 124.268 250.097 124.268 250.097 124.268 251.911 C 124.76 251.747 125.253 251.583 125.76 251.413 C 125.76 251.906 125.76 252.398 125.76 252.906 C 126.088 252.906 126.417 252.906 126.755 252.906 C 126.755 253.398 126.755 253.89 126.755 254.398 C 127.114 254.511 127.473 254.624 127.843 254.74 C 129.535 255.529 130.441 256.53 131.729 257.88 C 132.605 258.651 133.495 259.403 134.39 260.153 C 135.927 261.485 136.845 262.289 137.2 264.346 C 134.462 262.913 132.339 261.255 130.112 259.123 C 129.79 258.818 129.467 258.513 129.135 258.198 C 125.212 254.447 121.206 250.553 118.299 245.942 C 118.299 245.614 118.299 245.286 118.299 244.947 Z" style="" fill="#DD533A"/><path d="M 252.595 261.361 C 245.04 267.222 237.062 271.666 228.223 275.288 C 227.769 275.483 227.316 275.678 226.849 275.879 C 225.736 276.283 225.736 276.283 224.243 276.283 C 224.243 275.955 224.243 275.626 224.243 275.288 C 225.053 274.937 225.053 274.937 225.879 274.579 C 226.598 274.266 227.317 273.953 228.036 273.64 C 228.391 273.487 228.745 273.333 229.11 273.175 C 230.721 272.473 232.302 271.755 233.87 270.961 C 235.186 270.314 235.186 270.314 236.523 270.066 C 237.684 269.925 237.684 269.925 238.306 269.166 C 239.453 268.043 240.726 267.349 242.118 266.553 C 242.636 266.255 243.153 265.957 243.686 265.649 C 245.322 264.738 246.838 263.943 248.616 263.351 C 248.616 263.023 248.616 262.694 248.616 262.356 C 250.799 260.763 250.799 260.763 252.595 261.361 Z" style="" fill="#DC5943"/><path d="M 106.362 213.114 C 107.57 214.927 107.437 215.955 107.357 218.088 C 107.685 218.088 108.013 218.088 108.351 218.088 C 108.466 218.588 108.581 219.087 108.699 219.602 C 110.214 226.027 112.248 231.787 115.635 237.5 C 116.374 239.119 116.443 240.205 116.31 241.963 C 110.066 234.956 106.4 222.404 106.362 213.114 Z" style="" fill="#D46041"/><path d="M 269.506 238.979 C 269.834 239.143 270.163 239.307 270.501 239.476 C 265.638 247.692 259.917 254.218 253.092 260.864 C 252.805 259.923 252.805 259.923 252.595 258.874 C 253.216 258.004 253.216 258.004 254.087 257.382 C 254.579 257.382 255.072 257.382 255.579 257.382 C 255.579 256.89 255.579 256.397 255.579 255.89 C 256.232 255.05 256.232 255.05 257.071 254.398 C 257.564 254.398 258.056 254.398 258.563 254.398 C 258.615 254.08 258.666 253.762 258.719 253.434 C 258.832 253.096 258.944 252.757 259.061 252.408 C 259.553 252.244 260.046 252.08 260.553 251.911 C 261.191 250.882 261.528 250.021 261.765 248.833 C 261.858 248.536 261.95 248.238 262.045 247.932 C 262.538 247.768 263.03 247.603 263.537 247.434 C 264.218 246.622 264.218 246.622 264.812 245.662 C 265.435 244.697 265.435 244.697 266.024 243.953 C 266.353 243.953 266.681 243.953 267.019 243.953 C 267.019 243.46 267.019 242.968 267.019 242.46 C 267.347 242.46 267.676 242.46 268.014 242.46 C 268.014 241.804 268.014 241.147 268.014 240.471 C 268.76 239.6 268.76 239.6 269.506 238.979 Z" style="" fill="#DE563C"/><path d="M 179.478 70.363 C 179.642 70.363 179.807 70.363 179.976 70.363 C 180.088 71.056 180.189 71.751 180.287 72.446 C 180.373 73.026 180.373 73.026 180.461 73.618 C 180.475 75.08 180.037 75.982 179.478 77.327 C 179.299 78.39 179.145 79.458 179.012 80.528 C 178.673 82.924 178.276 84.733 176.991 86.777 C 176.663 86.777 176.335 86.777 175.997 86.777 C 175.919 87.685 175.919 87.685 175.841 88.611 C 175.607 90.487 175.105 91.68 174.007 93.243 C 173.75 93.705 173.494 94.166 173.23 94.642 C 172.994 95.001 172.758 95.36 172.515 95.73 C 172.187 95.73 171.858 95.73 171.52 95.73 C 172.035 94.043 172.631 92.449 173.395 90.863 C 176.556 84.283 178.36 77.57 179.478 70.363 Z" style="" fill="#E39145"/><path d="M 233.196 199.685 C 234.017 199.685 234.838 199.685 235.683 199.685 C 235.683 200.013 235.683 200.341 235.683 200.68 C 236.012 200.68 236.34 200.68 236.678 200.68 C 238.391 205.36 238.391 205.36 238.17 207.643 C 237.334 206.388 236.727 205.25 236.119 203.881 C 235.943 203.491 235.767 203.1 235.586 202.698 C 235.186 201.674 235.186 201.674 235.186 200.68 C 234.858 200.68 234.529 200.68 234.191 200.68 C 234.145 201.48 234.145 201.48 234.098 202.296 C 233.494 207.026 231.151 212.259 227.37 215.29 C 226.68 215.758 225.961 216.183 225.238 216.596 C 225.074 216.268 224.91 215.94 224.741 215.601 C 225.069 215.601 225.397 215.601 225.736 215.601 C 225.736 215.273 225.736 214.945 225.736 214.607 C 226.064 214.607 226.392 214.607 226.73 214.607 C 226.73 214.114 226.73 213.622 226.73 213.114 C 227.541 212.428 228.37 211.765 229.217 211.125 C 229.381 210.797 229.546 210.468 229.715 210.13 C 230.043 210.13 230.371 210.13 230.71 210.13 C 230.71 209.309 230.71 208.489 230.71 207.643 C 231.038 207.479 231.366 207.315 231.704 207.146 C 232.031 205.93 232.031 205.93 232.233 204.503 C 232.496 202.875 232.769 201.279 233.196 199.685 Z" style="" fill="#DB6641"/><path d="M 166.546 199.187 C 166.71 199.187 166.874 199.187 167.044 199.187 C 167.056 199.628 167.068 200.068 167.081 200.522 C 167.378 211.801 167.378 211.801 168.038 223.062 C 165.892 222.782 164.047 222.469 162.07 221.57 C 163.848 220.954 165.222 221.197 167.044 221.57 C 166.973 221.293 166.902 221.015 166.829 220.73 C 165.968 216.984 165.917 213.371 165.955 209.539 C 165.956 208.927 165.956 208.314 165.956 207.683 C 165.97 204.804 166.021 202.021 166.546 199.187 Z" style="" fill="#D36D4C"/><path d="M 217.777 5.207 C 220.045 7.097 222.18 9.06 224.243 11.174 C 224.079 11.502 223.915 11.83 223.746 12.168 C 223.52 11.922 223.294 11.676 223.062 11.422 C 222.316 10.564 222.316 10.564 221.259 10.676 C 219.536 13.877 219.536 13.877 217.777 17.142 C 217.449 17.142 217.121 17.142 216.783 17.142 C 217.029 16.404 217.029 16.404 217.28 15.65 C 218.152 12.26 217.853 8.676 217.777 5.207 Z" style="" fill="#F29028"/><path d="M 132.724 126.568 C 132.888 126.568 133.052 126.568 133.221 126.568 C 133.213 126.987 133.213 126.987 133.205 127.415 C 133.097 134.171 133.401 140.751 134.216 147.459 C 133.887 147.295 133.559 147.131 133.221 146.961 C 132.095 143.217 132.108 139.624 132.164 135.739 C 132.168 135.142 132.173 134.546 132.177 133.931 C 132.189 132.471 132.205 131.012 132.226 129.553 C 131.734 129.553 131.241 129.553 130.734 129.553 C 130.57 130.045 130.406 130.538 130.237 131.045 C 129.908 131.045 129.58 131.045 129.242 131.045 C 129.078 131.537 128.914 132.03 128.744 132.537 C 128.416 132.373 128.088 132.209 127.75 132.04 C 128.485 131.221 129.221 130.402 129.957 129.584 C 130.366 129.128 130.776 128.672 131.198 128.202 C 132.226 127.066 132.226 127.066 132.724 126.568 Z" style="" fill="#D67D44"/><path d="M 239.663 238.979 C 239.827 238.979 239.991 238.979 240.16 238.979 C 240.26 241.541 240.309 243.591 239.165 245.942 C 239.011 246.475 238.857 247.009 238.699 247.559 C 238.525 248.01 238.35 248.461 238.17 248.927 C 237.678 249.091 237.186 249.255 236.678 249.424 C 236.627 249.865 236.576 250.306 236.523 250.76 C 236.172 252.45 235.705 253.512 234.689 254.895 C 234.36 254.895 234.032 254.895 233.694 254.895 C 234.41 252.668 235.236 250.501 236.119 248.336 C 237.37 245.241 238.55 242.127 239.663 238.979 Z" style="" fill="#DF5B43"/><path d="M 231.207 156.412 C 232.463 158.924 231.028 163.211 230.309 165.825 C 229.969 166.841 229.597 167.845 229.217 168.847 C 231.844 168.682 234.47 168.518 237.176 168.349 C 235.278 170.247 232.698 169.899 230.157 169.908 C 229.217 169.841 229.217 169.841 228.72 169.344 C 228.341 165.029 229.492 161.017 230.71 156.909 C 230.874 156.745 231.038 156.581 231.207 156.412 Z" style="" fill="#DE7340"/><path d="M 222.254 96.725 C 224.161 98.632 224.813 101.515 225.766 103.999 C 225.995 104.578 226.224 105.157 226.459 105.754 C 227.611 108.74 228.526 111.428 228.72 114.631 C 228.392 114.631 228.063 114.631 227.725 114.631 C 227.017 112.729 226.611 111.193 226.73 109.16 C 226.402 109.16 226.074 109.16 225.736 109.16 C 225.392 108.13 225.049 107.099 224.708 106.068 C 224.378 105.086 224.042 104.106 223.701 103.127 C 223.521 102.604 223.341 102.082 223.155 101.543 C 222.984 101.053 222.813 100.562 222.636 100.057 C 222.254 98.714 222.254 98.714 222.254 96.725 Z" style="" fill="#E08D49"/><path d="M 113.325 156.909 C 113.489 156.909 113.654 156.909 113.823 156.909 C 113.657 159.847 113.426 161.858 111.833 164.37 C 111.13 166.551 110.58 168.775 110.079 171.011 C 109.642 172.936 109.202 174.34 107.854 175.81 C 108.11 172.048 109.074 168.792 110.31 165.241 C 110.489 164.712 110.668 164.184 110.853 163.639 C 111.626 161.372 112.421 159.128 113.325 156.909 Z" style="" fill="#DC8157"/><path d="M 278.459 195.208 C 279.454 196.203 279.454 196.203 279.575 197.341 C 279.573 197.807 279.571 198.274 279.568 198.754 C 279.567 199.27 279.566 199.784 279.565 200.315 C 279.559 200.856 279.553 201.397 279.547 201.954 C 279.547 202.482 279.546 203.009 279.546 203.552 C 279.529 206.612 279.354 209.583 278.956 212.617 C 278.792 212.617 278.628 212.617 278.459 212.617 C 277.745 206.792 278.112 201.048 278.459 195.208 Z" style="" fill="#DB633B"/><path d="M 212.306 24.106 C 212.47 24.106 212.634 24.106 212.803 24.106 C 212.824 25.266 212.824 26.427 212.803 27.588 C 212.639 27.752 212.475 27.916 212.306 28.085 C 211.983 31.624 212.403 34.298 213.798 37.535 C 213.987 38.36 214.165 39.187 214.296 40.022 C 212.199 38.225 211.122 35.769 210.814 33.059 C 210.574 29.679 210.928 27.207 212.306 24.106 Z" style="" fill="#E08F3F"/><path d="M 211.311 77.824 C 213.028 79.864 214.425 82.026 215.819 84.29 C 216.035 84.638 216.25 84.985 216.473 85.343 C 216.889 86.015 217.303 86.688 217.715 87.362 C 218.2 88.148 218.702 88.925 219.205 89.699 C 219.391 90.048 219.576 90.397 219.767 90.756 C 219.603 91.085 219.439 91.413 219.27 91.751 C 217.828 90.56 217.528 89.606 217.28 87.772 C 216.788 87.608 216.295 87.444 215.788 87.274 C 215.197 85.502 215.197 85.502 214.793 83.793 C 214.465 83.793 214.136 83.793 213.798 83.793 C 213.291 82.97 212.795 82.14 212.306 81.306 C 211.978 81.142 211.65 80.978 211.311 80.808 C 211.311 79.824 211.311 78.839 211.311 77.824 Z" style="" fill="#E18F43"/><path d="M 186.939 154.92 C 187.76 154.92 188.581 154.92 189.426 154.92 C 186.848 157.973 184.165 160.925 181.468 163.873 C 181.304 163.216 181.14 162.56 180.97 161.883 C 181.463 161.883 181.955 161.883 182.463 161.883 C 182.627 161.062 182.791 160.242 182.96 159.396 C 183.452 159.396 183.945 159.396 184.452 159.396 C 184.452 158.904 184.452 158.411 184.452 157.904 C 184.945 157.904 185.437 157.904 185.944 157.904 C 186.273 156.919 186.601 155.934 186.939 154.92 Z" style="" fill="#DE723D"/><path d="M 141.179 138.008 C 141.807 139.893 141.58 141.045 141.179 142.982 C 140.529 144.283 139.946 145.23 138.879 146.215 C 137.96 147.218 137.877 148.124 137.697 149.448 C 137.369 149.448 137.041 149.448 136.703 149.448 C 137.363 145.195 139.18 141.766 141.179 138.008 Z" style="" fill="#DE783D"/><path d="M 152.619 121.097 C 152.783 121.425 152.947 121.754 153.117 122.092 C 152.621 122.971 152.122 123.85 151.58 124.701 C 151.013 125.63 151.013 125.63 151.127 127.066 C 150.4 127.864 150.4 127.864 149.448 128.651 C 148.981 129.046 148.981 129.046 148.504 129.45 C 147.645 130.05 147.645 130.05 146.65 130.05 C 147.341 128.044 148.282 126.64 149.635 125.014 C 150.698 123.728 151.693 122.486 152.619 121.097 Z" style="" fill="#E38648"/><path d="M 178.981 164.37 C 179.637 164.534 180.294 164.698 180.97 164.867 C 180.671 165.33 180.37 165.792 180.061 166.268 C 179.659 166.889 179.258 167.511 178.857 168.131 C 178.66 168.434 178.463 168.738 178.26 169.05 C 176.936 171.101 175.699 173.183 174.504 175.313 C 173.945 173.447 173.945 173.447 174.504 172.328 C 174.833 172.328 175.161 172.328 175.499 172.328 C 175.584 171.992 175.668 171.656 175.755 171.31 C 176.438 168.797 176.911 167.077 178.981 165.365 C 178.981 165.037 178.981 164.708 178.981 164.37 Z" style="" fill="#D76F40"/><path d="M 194.4 149.448 C 195.221 149.448 196.041 149.448 196.887 149.448 C 197.568 151.695 197.121 153.223 196.39 155.417 C 196.225 155.417 196.061 155.417 195.892 155.417 C 195.879 154.692 195.869 153.966 195.861 153.241 C 195.855 152.837 195.849 152.433 195.843 152.017 C 195.892 150.941 195.892 150.941 196.39 149.946 C 196.006 150.227 195.623 150.509 195.228 150.799 C 194.729 151.163 194.23 151.528 193.716 151.904 C 193.22 152.268 192.723 152.631 192.212 153.006 C 190.918 153.925 190.918 153.925 189.923 154.422 C 190.327 153.21 190.327 153.21 190.918 151.935 C 191.411 151.771 191.903 151.607 192.41 151.438 C 192.575 151.11 192.739 150.781 192.908 150.443 C 193.4 150.443 193.893 150.443 194.4 150.443 C 194.4 150.115 194.4 149.787 194.4 149.448 Z" style="" fill="#DB7944"/><path d="M 217.777 5.207 C 220.073 7.171 222.155 9.034 224.243 11.174 C 224.079 11.502 223.915 11.83 223.746 12.168 C 223.471 11.887 223.194 11.605 222.91 11.315 C 222.55 10.951 222.19 10.586 221.819 10.21 C 221.461 9.846 221.103 9.483 220.734 9.109 C 219.832 8.161 219.832 8.161 218.772 7.693 C 218.784 8.105 218.795 8.519 218.807 8.945 C 218.816 9.486 218.825 10.026 218.834 10.583 C 218.846 11.119 218.857 11.656 218.869 12.209 C 218.772 13.661 218.772 13.661 217.777 15.153 C 217.777 11.87 217.777 8.587 217.777 5.207 Z" style="" fill="#DA9948"/><path d="M 130.734 257.88 C 133.007 258.89 135.106 260.44 136.703 262.356 C 137.044 263.444 137.044 263.444 137.2 264.346 C 134.176 262.804 131.858 261.25 130.734 257.88 Z" style="" fill="#D75239"/><path d="M 277.962 213.114 C 278.126 213.114 278.29 213.114 278.459 213.114 C 278.245 217.573 277.117 221.756 275.972 226.047 C 275.808 226.047 275.644 226.047 275.475 226.047 C 275.204 222.049 276.208 218.874 277.464 215.104 C 277.638 214.443 277.808 213.78 277.962 213.114 Z" style="" fill="#D46042"/><path d="M 213.301 276.283 C 213.301 276.611 213.301 276.94 213.301 277.278 C 212.808 277.606 212.316 277.934 211.809 278.273 C 212.958 278.437 214.107 278.601 215.29 278.77 C 215.29 278.934 215.29 279.098 215.29 279.267 C 212.614 279.86 210.091 280.407 207.332 280.262 C 211.027 276.283 211.027 276.283 213.301 276.283 Z" style="" fill="#D6614A"/><path d="M 227.228 263.351 C 227.392 264.007 227.556 264.664 227.725 265.34 C 226.606 266.615 226.606 266.615 225.238 267.827 C 224.982 268.135 224.725 268.443 224.461 268.76 C 224.107 269.037 224.107 269.037 223.746 269.32 C 223.09 269.155 222.433 268.991 221.756 268.822 C 223.562 267.017 225.368 265.211 227.228 263.351 Z" style="" fill="#D96657"/><path d="M 173.012 175.313 C 173.34 175.313 173.669 175.313 174.007 175.313 C 172.515 179.789 171.023 184.266 169.53 188.742 C 168.962 187.064 169.111 186.059 169.637 184.382 C 169.842 183.719 169.842 183.719 170.05 183.042 C 170.196 182.584 170.343 182.126 170.494 181.654 C 170.639 181.189 170.783 180.723 170.932 180.244 C 171.289 179.096 171.651 177.95 172.017 176.805 C 172.346 176.805 172.674 176.805 173.012 176.805 C 173.012 176.312 173.012 175.82 173.012 175.313 Z" style="" fill="#D46D43"/><path d="M 253.59 152.433 C 254.08 153.96 254.124 154.896 253.59 156.412 C 252.459 158.601 251.278 160.6 249.113 161.883 C 248.785 161.719 248.456 161.555 248.118 161.386 C 248.305 161.156 248.491 160.927 248.684 160.69 C 250.717 158.098 252.207 155.418 253.59 152.433 Z" style="" fill="#DE7C4D"/><path d="M 148.143 201.674 C 149.886 203.591 150.465 205.162 151.127 207.643 C 151.648 208.831 152.197 210 152.765 211.166 C 152.881 211.48 152.997 211.795 153.117 212.12 C 152.952 212.448 152.788 212.776 152.619 213.114 C 150.51 209.677 148.92 205.996 147.645 202.172 C 147.809 202.008 147.974 201.844 148.143 201.674 Z" style="" fill="#DA6D4A"/><path d="M 173.012 277.278 C 174.818 278.263 176.623 279.247 178.483 280.262 C 176.244 280.822 175.112 280.56 172.888 280.044 C 172.26 279.902 171.631 279.758 170.984 279.611 C 170.504 279.498 170.024 279.384 169.53 279.267 C 169.53 279.103 169.53 278.939 169.53 278.77 C 171.254 278.524 171.254 278.524 173.012 278.273 C 173.012 277.944 173.012 277.616 173.012 277.278 Z" style="" fill="#CF7159"/><path d="M 221.259 269.32 C 221.259 271.362 220.679 271.82 219.27 273.299 C 217.846 274.411 216.418 275.487 214.793 276.283 C 214.301 276.119 213.808 275.955 213.301 275.786 C 213.975 275.273 213.975 275.273 214.663 274.75 C 215.256 274.297 215.848 273.845 216.44 273.392 C 216.885 273.055 216.885 273.055 217.337 272.711 C 218.724 271.649 220.074 270.607 221.259 269.32 Z" style="" fill="#D65844"/><path d="M 112.331 232.513 C 113.813 233.254 114.136 234.378 114.88 235.839 C 115.148 236.354 115.416 236.869 115.692 237.399 C 116.337 239.05 116.431 240.209 116.31 241.963 C 113.824 239.306 112.901 236.049 112.331 232.513 Z" style="" fill="#DE5A3D"/><path d="M 118.299 146.961 C 118.92 148.825 118.598 149.188 117.802 150.941 C 117.531 151.572 117.262 152.204 116.994 152.837 C 116.768 153.36 116.542 153.883 116.31 154.422 C 115.981 154.422 115.653 154.422 115.315 154.422 C 115.151 155.243 114.987 156.064 114.817 156.909 C 114.489 156.909 114.161 156.909 113.823 156.909 C 114.886 153.306 116.423 150.211 118.299 146.961 Z" style="" fill="#DE8654"/><path d="M 269.506 238.979 C 269.834 239.143 270.163 239.307 270.501 239.476 C 269.697 240.795 268.887 242.11 268.076 243.424 C 267.847 243.799 267.618 244.175 267.382 244.562 C 267.161 244.919 266.94 245.277 266.712 245.645 C 266.407 246.141 266.407 246.141 266.096 246.647 C 265.527 247.434 265.527 247.434 264.532 247.932 C 264.656 246.502 264.656 246.502 265.029 244.947 C 266.055 244.263 266.055 244.263 267.019 243.953 C 267.019 243.46 267.019 242.968 267.019 242.46 C 267.347 242.46 267.676 242.46 268.014 242.46 C 268.014 241.804 268.014 241.147 268.014 240.471 C 268.76 239.6 268.76 239.6 269.506 238.979 Z" style="" fill="#D65D43"/><path d="M 208.327 205.156 C 208.984 205.32 209.64 205.484 210.317 205.654 C 210.481 206.474 210.645 207.295 210.814 208.14 C 211.111 208.161 211.409 208.181 211.715 208.203 C 212.803 208.638 212.803 208.638 213.674 210.068 C 214.296 211.622 214.296 211.622 214.296 213.114 C 213.391 212.07 212.49 211.023 211.591 209.974 C 211.334 209.678 211.078 209.383 210.813 209.078 C 210.568 208.791 210.322 208.504 210.07 208.209 C 209.843 207.945 209.617 207.682 209.383 207.411 C 208.824 206.648 208.824 206.648 208.327 205.156 Z" style="" fill="#D4623D"/><path d="M 137.2 264.346 C 138.365 264.473 139.527 264.641 140.682 264.843 C 140.846 265.171 141.01 265.5 141.179 265.838 C 141.672 266.002 142.164 266.166 142.671 266.335 C 142.671 266.663 142.671 266.992 142.671 267.33 C 142.989 267.381 143.308 267.432 143.635 267.485 C 143.974 267.598 144.312 267.711 144.661 267.827 C 144.825 268.32 144.989 268.812 145.158 269.32 C 143.2 268.607 141.533 267.677 139.78 266.553 C 139.295 266.244 138.81 265.936 138.309 265.618 C 137.943 265.362 137.577 265.107 137.2 264.843 C 137.2 264.679 137.2 264.515 137.2 264.346 Z" style="" fill="#D64F39"/><path d="M 214.793 213.114 C 215.614 213.114 216.434 213.114 217.28 213.114 C 217.28 213.443 217.28 213.771 217.28 214.109 C 219.687 215.632 221.405 216.364 224.243 216.596 C 224.243 216.76 224.243 216.924 224.243 217.094 C 220.744 217.427 219.011 216.907 216.161 214.859 C 215.29 214.109 215.29 214.109 214.793 213.114 Z" style="" fill="#D5633F"/><path d="M 239.165 63.897 C 239.329 63.897 239.493 63.897 239.663 63.897 C 239.847 66.421 239.334 68.121 238.17 70.363 C 237.678 70.691 237.186 71.02 236.678 71.358 C 236.917 68.486 237.765 66.404 239.165 63.897 Z" style="" fill="#E48F45"/><path d="M 175.997 44.001 C 177.763 44.854 179.349 45.88 180.97 46.986 C 180.478 47.15 179.986 47.314 179.478 47.483 C 178.986 47.155 178.493 46.827 177.986 46.488 C 178.15 48.13 178.314 49.771 178.483 51.462 C 177.646 49.787 177.149 48.403 176.68 46.613 C 176.551 46.123 176.421 45.633 176.288 45.129 C 176.192 44.757 176.096 44.384 175.997 44.001 Z" style="" fill="#D69A52"/><path d="M 224.243 276.283 C 222.787 277.254 221.716 277.653 220.046 278.117 C 219.575 278.252 219.104 278.387 218.618 278.527 C 217.285 278.769 216.552 278.717 215.29 278.273 C 218.156 276.362 220.906 276.166 224.243 276.283 Z" style="" fill="#DB5A45"/><path d="M 236.678 247.434 C 237.333 249.236 237.018 250.256 236.305 252.004 C 236.048 252.661 236.048 252.661 235.784 253.331 C 235.186 254.398 235.186 254.398 233.694 254.895 C 234.489 252.31 235.555 249.888 236.678 247.434 Z" style="" fill="#D9614B"/><path d="M 168.536 190.732 C 169.328 192.315 168.678 193.856 168.318 195.519 C 168.245 195.87 168.171 196.222 168.095 196.584 C 167.913 197.453 167.727 198.32 167.541 199.187 C 167.377 199.187 167.213 199.187 167.044 199.187 C 167.003 198.058 166.974 196.929 166.95 195.799 C 166.933 195.17 166.916 194.541 166.898 193.893 C 167.044 192.224 167.044 192.224 167.796 191.255 C 168.162 190.996 168.162 190.996 168.536 190.732 Z" style="" fill="#DA734C"/><path d="M 273.983 229.031 C 274.543 230.712 274.462 230.886 273.767 232.41 C 273.608 232.764 273.449 233.118 273.286 233.483 C 273.116 233.85 272.945 234.217 272.77 234.595 C 272.602 234.968 272.434 235.341 272.26 235.725 C 271.844 236.646 271.421 237.564 270.998 238.481 C 270.834 238.481 270.67 238.481 270.501 238.481 C 270.501 237.496 270.501 236.512 270.501 235.497 C 270.993 235.333 271.486 235.169 271.993 235 C 272.368 233.852 272.695 232.689 272.988 231.518 C 273.307 230.684 273.634 229.853 273.983 229.031 Z" style="" fill="#D05C42"/><path d="M 118.299 244.947 C 119.232 245.04 119.232 245.04 120.289 245.445 C 120.911 246.719 120.911 246.719 121.284 247.932 C 121.612 247.932 121.94 247.932 122.278 247.932 C 122.278 248.752 122.278 249.573 122.278 250.419 C 119.392 247.611 119.392 247.611 118.299 245.942 C 118.299 245.614 118.299 245.286 118.299 244.947 Z" style="" fill="#D95A41"/><path d="M 158.09 114.134 C 158.255 114.462 158.419 114.79 158.588 115.128 C 157.745 117.169 156.803 118.679 155.106 120.102 C 154.778 120.102 154.45 120.102 154.111 120.102 C 154.111 120.431 154.111 120.759 154.111 121.097 C 153.783 120.933 153.455 120.769 153.117 120.6 C 155.579 117.399 155.579 117.399 158.09 114.134 Z" style="" fill="#E08A4F"/><path d="M 213.301 276.283 C 214.264 276.438 214.264 276.438 215.29 276.78 C 215.455 277.273 215.619 277.765 215.788 278.273 C 215.29 278.77 215.29 278.77 214.371 278.819 C 213.351 278.802 212.331 278.786 211.311 278.77 C 211.64 278.278 211.968 277.785 212.306 277.278 C 212.634 277.278 212.963 277.278 213.301 277.278 C 213.301 276.95 213.301 276.621 213.301 276.283 Z" style="" fill="#EB4B31"/><path d="M 180.97 47.483 C 183.644 48.932 186.033 50.588 188.431 52.457 C 187.939 52.621 187.446 52.785 186.939 52.955 C 185.841 52.277 184.871 51.6 183.861 50.809 C 183.444 50.498 183.444 50.498 183.019 50.181 C 182.314 49.641 181.639 49.062 180.97 48.478 C 180.97 48.15 180.97 47.821 180.97 47.483 Z" style="" fill="#E19542"/><path d="M 155.604 119.108 C 155.932 119.272 156.26 119.436 156.598 119.605 C 156.106 119.605 155.613 119.605 155.106 119.605 C 155.27 119.441 155.434 119.277 155.604 119.108 Z" style="" fill="#F17C30"/><path d="M 154.111 120.102 C 154.604 120.266 155.096 120.431 155.604 120.6 C 154.343 122.7 153.332 123.973 151.127 125.076 C 151.79 123.75 152.454 122.424 153.117 121.097 C 153.445 121.097 153.773 121.097 154.111 121.097 C 154.111 120.769 154.111 120.441 154.111 120.102 Z" style="" fill="#F17C30"/><path d="M 256.574 90.756 C 256.738 91.085 256.902 91.413 257.071 91.751 C 256.514 92.571 255.954 93.389 255.393 94.207 C 255.081 94.663 254.769 95.118 254.448 95.588 C 253.59 96.725 253.59 96.725 252.595 97.222 C 253.121 95.53 253.594 94.231 254.584 92.746 C 254.913 92.746 255.241 92.746 255.579 92.746 C 255.907 92.089 256.236 91.433 256.574 90.756 Z" style="" fill="#E38140"/><path d="M 203.353 67.876 C 205.601 69.438 206.594 70.968 207.83 73.348 C 207.009 73.348 206.188 73.348 205.343 73.348 C 205.343 72.363 205.343 71.378 205.343 70.363 C 204.85 70.199 204.358 70.035 203.85 69.866 C 203.508 68.84 203.508 68.84 203.353 67.876 Z" style="" fill="#E6903D"/><path d="M 223.746 40.022 C 224.403 40.187 225.059 40.351 225.736 40.52 C 225.167 41.184 224.597 41.847 224.026 42.509 C 223.708 42.878 223.391 43.248 223.064 43.628 C 222.663 44.059 222.663 44.059 222.254 44.499 C 222.09 44.499 221.926 44.499 221.756 44.499 C 221.756 43.678 221.756 42.857 221.756 42.012 C 222.413 41.848 223.07 41.684 223.746 41.515 C 223.746 41.022 223.746 40.53 223.746 40.022 Z" style="" fill="#E78E37"/><path d="M 147.645 270.812 C 148.361 270.855 149.076 270.909 149.79 270.967 C 150.188 270.996 150.586 271.025 150.997 271.054 C 152.316 271.353 152.801 271.735 153.614 272.801 C 153.614 273.13 153.614 273.458 153.614 273.796 C 151.508 273.144 149.598 272.332 147.645 271.309 C 147.645 271.145 147.645 270.981 147.645 270.812 Z" style="" fill="#DA5C49"/><path d="M 231.704 257.382 C 231.868 258.039 232.033 258.695 232.202 259.372 C 231.58 260.086 231.58 260.086 230.71 260.864 C 230.195 261.683 229.694 262.51 229.217 263.351 C 228.725 263.187 228.233 263.023 227.725 262.853 C 229.038 261.048 230.351 259.242 231.704 257.382 Z" style="" fill="#D9604B"/><path d="M 155.604 261.361 C 157.553 263.253 159.329 265.249 161.075 267.33 C 158.68 266.916 158 265.757 156.598 263.848 C 156.598 263.52 156.598 263.192 156.598 262.853 C 156.27 262.853 155.942 262.853 155.604 262.853 C 155.604 262.361 155.604 261.869 155.604 261.361 Z" style="" fill="#D15E4C"/><path d="M 257.071 133.034 C 258.546 134.431 259.78 135.612 260.553 137.511 C 259.558 136.827 259.558 136.827 258.563 136.019 C 258.563 135.691 258.563 135.362 258.563 135.024 C 258.235 135.024 257.907 135.024 257.569 135.024 C 257.569 136.173 257.569 137.322 257.569 138.506 C 257.404 138.506 257.24 138.506 257.071 138.506 C 257.071 136.7 257.071 134.895 257.071 133.034 Z" style="" fill="#D28553"/><path d="M 178.483 46.986 C 179.715 47.232 179.715 47.232 180.97 47.483 C 180.97 47.812 180.97 48.14 180.97 48.478 C 181.278 48.622 181.586 48.765 181.903 48.913 C 182.96 49.473 182.96 49.473 183.955 50.468 C 182.221 50.146 180.957 49.423 179.478 48.478 C 179.314 48.97 179.15 49.463 178.981 49.97 C 178.817 48.985 178.653 48.001 178.483 46.986 Z" style="" fill="#F28920"/><path d="M 223.156 269.133 C 223.515 269.195 223.874 269.256 224.243 269.32 C 223.083 270.48 221.923 271.641 220.762 272.801 C 220.269 272.637 219.777 272.473 219.27 272.304 C 221.412 269.365 221.412 269.365 223.156 269.133 Z" style="" fill="#EC4B31"/><path d="M 127.252 132.537 C 127.75 133.532 127.75 133.532 127.19 135.241 C 126.412 136.978 125.521 137.701 123.771 138.506 C 124.545 136.182 125.802 134.483 127.252 132.537 Z" style="" fill="#E1884F"/><path d="M 195.395 59.421 C 195.956 59.885 196.515 60.351 197.073 60.819 C 197.385 61.079 197.697 61.339 198.018 61.606 C 198.877 62.405 198.877 62.405 199.871 63.897 C 197.925 63.249 196.701 62.51 195.395 60.913 C 195.395 60.42 195.395 59.928 195.395 59.421 Z" style="" fill="#E18F3C"/><path d="M 249.113 52.457 C 249.658 54.154 249.582 55.544 249.393 57.307 C 249.342 57.797 249.292 58.287 249.239 58.791 C 249.177 59.349 249.177 59.349 249.113 59.918 C 248.949 59.918 248.785 59.918 248.616 59.918 C 248.579 59.334 248.579 59.334 248.541 58.739 C 248.505 58.235 248.467 57.732 248.429 57.213 C 248.394 56.711 248.36 56.209 248.324 55.692 C 248.256 55.281 248.188 54.87 248.118 54.447 C 247.79 54.283 247.462 54.118 247.123 53.949 C 247.78 53.457 248.437 52.964 249.113 52.457 Z" style="" fill="#DE9F5B"/><path d="M 227.228 263.351 C 227.632 264.19 227.632 264.19 227.725 265.34 C 226.513 266.708 226.513 266.708 225.238 267.827 C 225.238 265.981 225.909 264.67 227.228 263.351 Z" style="" fill="#DF5843"/><path d="M 210.317 277.775 C 210.645 278.432 210.973 279.088 211.311 279.765 C 209.964 280.438 208.82 280.294 207.332 280.262 C 209.197 278.335 209.197 278.335 210.317 277.775 Z" style="" fill="#C66D5B"/><path d="M 229.715 274.293 C 227.888 275.511 226.458 276.283 224.243 276.283 C 224.243 275.955 224.243 275.626 224.243 275.288 C 226.051 274.131 227.611 274.212 229.715 274.293 Z" style="" fill="#D95C4A"/><path d="M 130.734 257.88 C 132.444 258.64 133.812 259.621 135.21 260.864 C 135.21 261.192 135.21 261.52 135.21 261.859 C 134.216 261.361 134.216 261.361 133.221 260.864 C 132.862 260.72 132.503 260.576 132.133 260.429 C 131.231 259.869 131.231 259.869 130.858 258.812 C 130.817 258.504 130.776 258.196 130.734 257.88 Z" style="" fill="#E74830"/><path d="M 138.692 142.982 C 138.856 142.982 139.021 142.982 139.19 142.982 C 139.29 144.831 139.265 145.356 138.195 146.961 C 138.003 147.785 137.833 148.614 137.697 149.448 C 137.369 149.448 137.041 149.448 136.703 149.448 C 136.844 148.743 136.99 148.038 137.138 147.334 C 137.218 146.942 137.3 146.55 137.383 146.145 C 137.693 144.988 138.119 144.032 138.692 142.982 Z" style="" fill="#D98353"/><path d="M 257.569 135.024 C 257.897 135.024 258.225 135.024 258.563 135.024 C 259.251 135.833 259.916 136.661 260.553 137.511 C 260.389 137.839 260.225 138.168 260.056 138.506 C 259.399 138.013 258.742 137.521 258.066 137.014 C 258.066 137.834 258.066 138.655 258.066 139.501 C 257.902 139.501 257.738 139.501 257.569 139.501 C 257.569 138.023 257.569 136.546 257.569 135.024 Z" style="" fill="#E97735"/><path d="M 216.783 43.007 C 217.603 43.007 218.424 43.007 219.27 43.007 C 219.434 43.499 219.598 43.992 219.767 44.499 C 220.259 44.827 220.752 45.155 221.259 45.494 C 220.603 45.658 219.946 45.822 219.27 45.991 C 218.449 45.006 217.628 44.021 216.783 43.007 Z" style="" fill="#E08A37"/><path d="M 134.216 147.459 C 135.21 149.324 135.21 149.324 135.21 150.443 C 135.539 150.443 135.867 150.443 136.205 150.443 C 136.369 150.115 136.534 149.787 136.703 149.448 C 136.703 150.105 136.703 150.761 136.703 151.438 C 135.882 151.438 135.061 151.438 134.216 151.438 C 134.216 150.125 134.216 148.812 134.216 147.459 Z" style="" fill="#E5915F"/><path d="M 187.437 52.955 C 188.338 53.048 188.338 53.048 189.426 53.452 C 190.297 54.726 190.297 54.726 190.918 55.939 C 190.426 56.185 190.426 56.185 189.923 56.436 C 189.923 56.108 189.923 55.78 189.923 55.441 C 189.605 55.308 189.287 55.175 188.96 55.037 C 187.934 54.447 187.934 54.447 187.437 52.955 Z" style="" fill="#EB9030"/><path d="M 196.887 149.946 C 197.683 151.936 197.033 153.45 196.39 155.417 C 196.225 155.417 196.061 155.417 195.892 155.417 C 195.865 154.692 195.846 153.966 195.83 153.241 C 195.813 152.635 195.813 152.635 195.795 152.017 C 195.892 150.941 195.892 150.941 196.887 149.946 Z" style="" fill="#E1763C"/><path d="M 146.153 130.05 C 146.317 130.378 146.481 130.707 146.65 131.045 C 145.034 134.278 145.034 134.278 143.169 135.521 C 143.89 133.477 144.915 131.824 146.153 130.05 Z" style="" fill="#D68752"/><path d="M 162.567 110.154 C 162.895 110.483 163.224 110.811 163.562 111.149 C 162.279 112.466 161.116 113.608 159.583 114.631 C 159.911 113.646 160.239 112.661 160.577 111.647 C 160.906 111.647 161.234 111.647 161.572 111.647 C 161.572 111.318 161.572 110.99 161.572 110.652 C 161.9 110.488 162.229 110.324 162.567 110.154 Z" style="" fill="#F17E31"/><path d="M 173.51 90.756 C 173.674 90.756 173.838 90.756 174.007 90.756 C 174.188 92.866 173.778 94.03 172.515 95.73 C 172.187 95.73 171.858 95.73 171.52 95.73 C 172.072 93.996 172.646 92.36 173.51 90.756 Z" style="" fill="#E49855"/><path d="M 140.682 266.833 C 142.36 266.957 142.36 266.957 144.164 267.33 C 144.878 268.356 144.878 268.356 145.158 269.32 C 143.438 268.698 142.101 267.989 140.682 266.833 Z" style="" fill="#D45645"/><path d="M 166.049 214.109 C 166.213 214.437 166.377 214.766 166.546 215.104 C 166.874 215.104 167.203 215.104 167.541 215.104 C 167.541 216.417 167.541 217.73 167.541 219.083 C 166.399 217.37 166.278 216.13 166.049 214.109 Z" style="" fill="#E26F4D"/><path d="M 205.84 201.177 C 206.332 201.177 206.825 201.177 207.332 201.177 C 208.403 202.783 208.427 203.308 208.327 205.156 C 207.206 203.819 206.396 202.845 205.84 201.177 Z" style="" fill="#D7663E"/><path d="M 242.15 60.415 C 242.314 60.744 242.478 61.072 242.647 61.41 C 241.826 62.231 241.006 63.052 240.16 63.897 C 239.996 63.569 239.832 63.241 239.663 62.902 C 240.483 62.082 241.304 61.261 242.15 60.415 Z" style="" fill="#EA8F3C"/><path d="M 154.609 215.104 C 156.086 215.35 156.086 215.35 157.593 215.601 C 157.593 216.422 157.593 217.243 157.593 218.088 C 156.588 217.272 155.593 216.442 154.609 215.601 C 154.609 215.437 154.609 215.273 154.609 215.104 Z" style="" fill="#DB6644"/><path d="M 128.744 132.04 C 128.744 133.818 128.203 134.553 127.252 136.019 C 126.924 135.855 126.596 135.691 126.257 135.521 C 127.625 132.599 127.625 132.599 128.744 132.04 Z" style="" fill="#ED7830"/><path d="M 250.108 97.72 C 251.196 97.875 251.196 97.875 252.097 98.217 C 251.196 99.212 251.196 99.212 250.108 100.207 C 249.615 100.207 249.123 100.207 248.616 100.207 C 248.616 99.212 248.616 99.212 249.237 98.372 C 249.524 98.157 249.812 97.942 250.108 97.72 Z" style="" fill="#E97A31"/><path d="M 258.066 85.285 C 258.23 85.285 258.394 85.285 258.563 85.285 C 258.19 89.078 258.19 89.078 257.071 90.756 C 256.929 87.061 256.929 87.061 258.066 85.285 Z" style="" fill="#DE8946"/></svg>